<?xml version="1.0" encoding="utf-8" standalone="no"?>
<!DOCTYPE svg PUBLIC "-//W3C//DTD SVG 1.1//EN"
  "http://www.w3.org/Graphics/SVG/1.1/DTD/svg11.dtd">
<svg xmlns:xlink="http://www.w3.org/1999/xlink" width="392.562334pt" height="143.492335pt" viewBox="0 0 392.562334 143.492335" xmlns="http://www.w3.org/2000/svg" version="1.1">
 <metadata>
  <rdf:RDF xmlns:dc="http://purl.org/dc/elements/1.1/" xmlns:cc="http://creativecommons.org/ns#" xmlns:rdf="http://www.w3.org/1999/02/22-rdf-syntax-ns#">
   <cc:Work>
    <dc:type rdf:resource="http://purl.org/dc/dcmitype/StillImage"/>
    <dc:date>2026-03-06T00:22:27.398850</dc:date>
    <dc:format>image/svg+xml</dc:format>
    <dc:creator>
     <cc:Agent>
      <dc:title>Matplotlib v3.10.3, https://matplotlib.org/</dc:title>
     </cc:Agent>
    </dc:creator>
   </cc:Work>
  </rdf:RDF>
 </metadata>
 <defs>
  <style type="text/css">*{stroke-linejoin: round; stroke-linecap: butt}</style>
 </defs>
 <g id="figure_1">
  <g id="patch_1">
   <path d="M 0 143.492335 
L 392.562334 143.492335 
L 392.562334 0 
L 0 0 
z
" style="fill: #ffffff"/>
  </g>
  <g id="axes_1">
   <g id="patch_2">
    <path d="M 39.765625 113.448008 
L 390.894333 113.448008 
L 390.894333 2.242173 
L 39.765625 2.242173 
z
" style="fill: #ffffff"/>
   </g>
   <g id="matplotlib.axis_1">
    <g id="xtick_1">
     <g id="line2d_1">
      <defs>
       <path id="mc49a50ac6b" d="M 0 0 
L 0 3.5 
" style="stroke: #000000; stroke-width: 0.8"/>
      </defs>
      <g>
       <use xlink:href="#mc49a50ac6b" x="64.907104" y="113.448008" style="stroke: #000000; stroke-width: 0.8"/>
      </g>
     </g>
     <g id="text_1">
      <!-- 256×160 -->
      <g transform="translate(43.137096 139.836775) rotate(-15) scale(0.1 -0.1)">
       <defs>
        <path id="DejaVuSans-32" d="M 1228 531 
L 3431 531 
L 3431 0 
L 469 0 
L 469 531 
Q 828 903 1448 1529 
Q 2069 2156 2228 2338 
Q 2531 2678 2651 2914 
Q 2772 3150 2772 3378 
Q 2772 3750 2511 3984 
Q 2250 4219 1831 4219 
Q 1534 4219 1204 4116 
Q 875 4013 500 3803 
L 500 4441 
Q 881 4594 1212 4672 
Q 1544 4750 1819 4750 
Q 2544 4750 2975 4387 
Q 3406 4025 3406 3419 
Q 3406 3131 3298 2873 
Q 3191 2616 2906 2266 
Q 2828 2175 2409 1742 
Q 1991 1309 1228 531 
z
" transform="scale(0.015625)"/>
        <path id="DejaVuSans-35" d="M 691 4666 
L 3169 4666 
L 3169 4134 
L 1269 4134 
L 1269 2991 
Q 1406 3038 1543 3061 
Q 1681 3084 1819 3084 
Q 2600 3084 3056 2656 
Q 3513 2228 3513 1497 
Q 3513 744 3044 326 
Q 2575 -91 1722 -91 
Q 1428 -91 1123 -41 
Q 819 9 494 109 
L 494 744 
Q 775 591 1075 516 
Q 1375 441 1709 441 
Q 2250 441 2565 725 
Q 2881 1009 2881 1497 
Q 2881 1984 2565 2268 
Q 2250 2553 1709 2553 
Q 1456 2553 1204 2497 
Q 953 2441 691 2322 
L 691 4666 
z
" transform="scale(0.015625)"/>
        <path id="DejaVuSans-36" d="M 2113 2584 
Q 1688 2584 1439 2293 
Q 1191 2003 1191 1497 
Q 1191 994 1439 701 
Q 1688 409 2113 409 
Q 2538 409 2786 701 
Q 3034 994 3034 1497 
Q 3034 2003 2786 2293 
Q 2538 2584 2113 2584 
z
M 3366 4563 
L 3366 3988 
Q 3128 4100 2886 4159 
Q 2644 4219 2406 4219 
Q 1781 4219 1451 3797 
Q 1122 3375 1075 2522 
Q 1259 2794 1537 2939 
Q 1816 3084 2150 3084 
Q 2853 3084 3261 2657 
Q 3669 2231 3669 1497 
Q 3669 778 3244 343 
Q 2819 -91 2113 -91 
Q 1303 -91 875 529 
Q 447 1150 447 2328 
Q 447 3434 972 4092 
Q 1497 4750 2381 4750 
Q 2619 4750 2861 4703 
Q 3103 4656 3366 4563 
z
" transform="scale(0.015625)"/>
        <path id="DejaVuSans-d7" d="M 4488 3438 
L 3059 2003 
L 4488 575 
L 4116 197 
L 2681 1631 
L 1247 197 
L 878 575 
L 2303 2003 
L 878 3438 
L 1247 3816 
L 2681 2381 
L 4116 3816 
L 4488 3438 
z
" transform="scale(0.015625)"/>
        <path id="DejaVuSans-31" d="M 794 531 
L 1825 531 
L 1825 4091 
L 703 3866 
L 703 4441 
L 1819 4666 
L 2450 4666 
L 2450 531 
L 3481 531 
L 3481 0 
L 794 0 
L 794 531 
z
" transform="scale(0.015625)"/>
        <path id="DejaVuSans-30" d="M 2034 4250 
Q 1547 4250 1301 3770 
Q 1056 3291 1056 2328 
Q 1056 1369 1301 889 
Q 1547 409 2034 409 
Q 2525 409 2770 889 
Q 3016 1369 3016 2328 
Q 3016 3291 2770 3770 
Q 2525 4250 2034 4250 
z
M 2034 4750 
Q 2819 4750 3233 4129 
Q 3647 3509 3647 2328 
Q 3647 1150 3233 529 
Q 2819 -91 2034 -91 
Q 1250 -91 836 529 
Q 422 1150 422 2328 
Q 422 3509 836 4129 
Q 1250 4750 2034 4750 
z
" transform="scale(0.015625)"/>
       </defs>
       <use xlink:href="#DejaVuSans-32"/>
       <use xlink:href="#DejaVuSans-35" transform="translate(63.623047 0)"/>
       <use xlink:href="#DejaVuSans-36" transform="translate(127.246094 0)"/>
       <use xlink:href="#DejaVuSans-d7" transform="translate(190.869141 0)"/>
       <use xlink:href="#DejaVuSans-31" transform="translate(274.658203 0)"/>
       <use xlink:href="#DejaVuSans-36" transform="translate(338.28125 0)"/>
       <use xlink:href="#DejaVuSans-30" transform="translate(401.904297 0)"/>
      </g>
     </g>
    </g>
    <g id="xtick_2">
     <g id="line2d_2">
      <g>
       <use xlink:href="#mc49a50ac6b" x="71.958177" y="113.448008" style="stroke: #000000; stroke-width: 0.8"/>
      </g>
     </g>
    </g>
    <g id="xtick_3">
     <g id="line2d_3">
      <g>
       <use xlink:href="#mc49a50ac6b" x="102.512823" y="113.448008" style="stroke: #000000; stroke-width: 0.8"/>
      </g>
     </g>
     <g id="text_2">
      <!-- 512×320 -->
      <g transform="translate(80.742814 139.836775) rotate(-15) scale(0.1 -0.1)">
       <defs>
        <path id="DejaVuSans-33" d="M 2597 2516 
Q 3050 2419 3304 2112 
Q 3559 1806 3559 1356 
Q 3559 666 3084 287 
Q 2609 -91 1734 -91 
Q 1441 -91 1130 -33 
Q 819 25 488 141 
L 488 750 
Q 750 597 1062 519 
Q 1375 441 1716 441 
Q 2309 441 2620 675 
Q 2931 909 2931 1356 
Q 2931 1769 2642 2001 
Q 2353 2234 1838 2234 
L 1294 2234 
L 1294 2753 
L 1863 2753 
Q 2328 2753 2575 2939 
Q 2822 3125 2822 3475 
Q 2822 3834 2567 4026 
Q 2313 4219 1838 4219 
Q 1578 4219 1281 4162 
Q 984 4106 628 3988 
L 628 4550 
Q 988 4650 1302 4700 
Q 1616 4750 1894 4750 
Q 2613 4750 3031 4423 
Q 3450 4097 3450 3541 
Q 3450 3153 3228 2886 
Q 3006 2619 2597 2516 
z
" transform="scale(0.015625)"/>
       </defs>
       <use xlink:href="#DejaVuSans-35"/>
       <use xlink:href="#DejaVuSans-31" transform="translate(63.623047 0)"/>
       <use xlink:href="#DejaVuSans-32" transform="translate(127.246094 0)"/>
       <use xlink:href="#DejaVuSans-d7" transform="translate(190.869141 0)"/>
       <use xlink:href="#DejaVuSans-33" transform="translate(274.658203 0)"/>
       <use xlink:href="#DejaVuSans-32" transform="translate(338.28125 0)"/>
       <use xlink:href="#DejaVuSans-30" transform="translate(401.904297 0)"/>
      </g>
     </g>
    </g>
    <g id="xtick_4">
     <g id="line2d_4">
      <g>
       <use xlink:href="#mc49a50ac6b" x="130.717112" y="113.448008" style="stroke: #000000; stroke-width: 0.8"/>
      </g>
     </g>
     <g id="text_3">
      <!-- 640×400 -->
      <g transform="translate(108.947103 139.836775) rotate(-15) scale(0.1 -0.1)">
       <defs>
        <path id="DejaVuSans-34" d="M 2419 4116 
L 825 1625 
L 2419 1625 
L 2419 4116 
z
M 2253 4666 
L 3047 4666 
L 3047 1625 
L 3713 1625 
L 3713 1100 
L 3047 1100 
L 3047 0 
L 2419 0 
L 2419 1100 
L 313 1100 
L 313 1709 
L 2253 4666 
z
" transform="scale(0.015625)"/>
       </defs>
       <use xlink:href="#DejaVuSans-36"/>
       <use xlink:href="#DejaVuSans-34" transform="translate(63.623047 0)"/>
       <use xlink:href="#DejaVuSans-30" transform="translate(127.246094 0)"/>
       <use xlink:href="#DejaVuSans-d7" transform="translate(190.869141 0)"/>
       <use xlink:href="#DejaVuSans-34" transform="translate(274.658203 0)"/>
       <use xlink:href="#DejaVuSans-30" transform="translate(338.28125 0)"/>
       <use xlink:href="#DejaVuSans-30" transform="translate(401.904297 0)"/>
      </g>
     </g>
    </g>
    <g id="xtick_5">
     <g id="line2d_5">
      <g>
       <use xlink:href="#mc49a50ac6b" x="165.189021" y="113.448008" style="stroke: #000000; stroke-width: 0.8"/>
      </g>
     </g>
     <g id="text_4">
      <!-- 768×480 -->
      <g transform="translate(143.419012 139.836775) rotate(-15) scale(0.1 -0.1)">
       <defs>
        <path id="DejaVuSans-37" d="M 525 4666 
L 3525 4666 
L 3525 4397 
L 1831 0 
L 1172 0 
L 2766 4134 
L 525 4134 
L 525 4666 
z
" transform="scale(0.015625)"/>
        <path id="DejaVuSans-38" d="M 2034 2216 
Q 1584 2216 1326 1975 
Q 1069 1734 1069 1313 
Q 1069 891 1326 650 
Q 1584 409 2034 409 
Q 2484 409 2743 651 
Q 3003 894 3003 1313 
Q 3003 1734 2745 1975 
Q 2488 2216 2034 2216 
z
M 1403 2484 
Q 997 2584 770 2862 
Q 544 3141 544 3541 
Q 544 4100 942 4425 
Q 1341 4750 2034 4750 
Q 2731 4750 3128 4425 
Q 3525 4100 3525 3541 
Q 3525 3141 3298 2862 
Q 3072 2584 2669 2484 
Q 3125 2378 3379 2068 
Q 3634 1759 3634 1313 
Q 3634 634 3220 271 
Q 2806 -91 2034 -91 
Q 1263 -91 848 271 
Q 434 634 434 1313 
Q 434 1759 690 2068 
Q 947 2378 1403 2484 
z
M 1172 3481 
Q 1172 3119 1398 2916 
Q 1625 2713 2034 2713 
Q 2441 2713 2670 2916 
Q 2900 3119 2900 3481 
Q 2900 3844 2670 4047 
Q 2441 4250 2034 4250 
Q 1625 4250 1398 4047 
Q 1172 3844 1172 3481 
z
" transform="scale(0.015625)"/>
       </defs>
       <use xlink:href="#DejaVuSans-37"/>
       <use xlink:href="#DejaVuSans-36" transform="translate(63.623047 0)"/>
       <use xlink:href="#DejaVuSans-38" transform="translate(127.246094 0)"/>
       <use xlink:href="#DejaVuSans-d7" transform="translate(190.869141 0)"/>
       <use xlink:href="#DejaVuSans-34" transform="translate(274.658203 0)"/>
       <use xlink:href="#DejaVuSans-38" transform="translate(338.28125 0)"/>
       <use xlink:href="#DejaVuSans-30" transform="translate(401.904297 0)"/>
      </g>
     </g>
    </g>
    <g id="xtick_6">
     <g id="line2d_6">
      <g>
       <use xlink:href="#mc49a50ac6b" x="252.935698" y="113.448008" style="stroke: #000000; stroke-width: 0.8"/>
      </g>
     </g>
     <g id="text_5">
      <!-- 1024×640 -->
      <g transform="translate(228.092838 141.483511) rotate(-15) scale(0.1 -0.1)">
       <use xlink:href="#DejaVuSans-31"/>
       <use xlink:href="#DejaVuSans-30" transform="translate(63.623047 0)"/>
       <use xlink:href="#DejaVuSans-32" transform="translate(127.246094 0)"/>
       <use xlink:href="#DejaVuSans-34" transform="translate(190.869141 0)"/>
       <use xlink:href="#DejaVuSans-d7" transform="translate(254.492188 0)"/>
       <use xlink:href="#DejaVuSans-36" transform="translate(338.28125 0)"/>
       <use xlink:href="#DejaVuSans-34" transform="translate(401.904297 0)"/>
       <use xlink:href="#DejaVuSans-30" transform="translate(465.527344 0)"/>
      </g>
     </g>
    </g>
    <g id="xtick_7">
     <g id="line2d_7">
      <g>
       <use xlink:href="#mc49a50ac6b" x="365.752854" y="113.448008" style="stroke: #000000; stroke-width: 0.8"/>
      </g>
     </g>
     <g id="text_6">
      <!-- 1280×800 -->
      <g transform="translate(340.909994 141.483511) rotate(-15) scale(0.1 -0.1)">
       <use xlink:href="#DejaVuSans-31"/>
       <use xlink:href="#DejaVuSans-32" transform="translate(63.623047 0)"/>
       <use xlink:href="#DejaVuSans-38" transform="translate(127.246094 0)"/>
       <use xlink:href="#DejaVuSans-30" transform="translate(190.869141 0)"/>
       <use xlink:href="#DejaVuSans-d7" transform="translate(254.492188 0)"/>
       <use xlink:href="#DejaVuSans-38" transform="translate(338.28125 0)"/>
       <use xlink:href="#DejaVuSans-30" transform="translate(401.904297 0)"/>
       <use xlink:href="#DejaVuSans-30" transform="translate(465.527344 0)"/>
      </g>
     </g>
    </g>
   </g>
   <g id="matplotlib.axis_2">
    <g id="ytick_1">
     <g id="line2d_8">
      <path d="M 39.765625 113.411699 
L 390.894333 113.411699 
" clip-path="url(#p9f05d42c4e)" style="fill: none; stroke-dasharray: 2.96,1.28; stroke-dashoffset: 0; stroke: #b0b0b0; stroke-width: 0.8"/>
     </g>
     <g id="line2d_9">
      <defs>
       <path id="m677372dce6" d="M 0 0 
L -3.5 0 
" style="stroke: #000000; stroke-width: 0.8"/>
      </defs>
      <g>
       <use xlink:href="#m677372dce6" x="39.765625" y="113.411699" style="stroke: #000000; stroke-width: 0.8"/>
      </g>
     </g>
     <g id="text_7">
      <!-- 0 -->
      <g transform="translate(26.403125 117.210917) scale(0.1 -0.1)">
       <use xlink:href="#DejaVuSans-30"/>
      </g>
     </g>
    </g>
    <g id="ytick_2">
     <g id="line2d_10">
      <path d="M 39.765625 86.008579 
L 390.894333 86.008579 
" clip-path="url(#p9f05d42c4e)" style="fill: none; stroke-dasharray: 2.96,1.28; stroke-dashoffset: 0; stroke: #b0b0b0; stroke-width: 0.8"/>
     </g>
     <g id="line2d_11">
      <g>
       <use xlink:href="#m677372dce6" x="39.765625" y="86.008579" style="stroke: #000000; stroke-width: 0.8"/>
      </g>
     </g>
     <g id="text_8">
      <!-- 200 -->
      <g transform="translate(13.678125 89.807797) scale(0.1 -0.1)">
       <use xlink:href="#DejaVuSans-32"/>
       <use xlink:href="#DejaVuSans-30" transform="translate(63.623047 0)"/>
       <use xlink:href="#DejaVuSans-30" transform="translate(127.246094 0)"/>
      </g>
     </g>
    </g>
    <g id="ytick_3">
     <g id="line2d_12">
      <path d="M 39.765625 58.605459 
L 390.894333 58.605459 
" clip-path="url(#p9f05d42c4e)" style="fill: none; stroke-dasharray: 2.96,1.28; stroke-dashoffset: 0; stroke: #b0b0b0; stroke-width: 0.8"/>
     </g>
     <g id="line2d_13">
      <g>
       <use xlink:href="#m677372dce6" x="39.765625" y="58.605459" style="stroke: #000000; stroke-width: 0.8"/>
      </g>
     </g>
     <g id="text_9">
      <!-- 400 -->
      <g transform="translate(13.678125 62.404677) scale(0.1 -0.1)">
       <use xlink:href="#DejaVuSans-34"/>
       <use xlink:href="#DejaVuSans-30" transform="translate(63.623047 0)"/>
       <use xlink:href="#DejaVuSans-30" transform="translate(127.246094 0)"/>
      </g>
     </g>
    </g>
    <g id="ytick_4">
     <g id="line2d_14">
      <path d="M 39.765625 31.202339 
L 390.894333 31.202339 
" clip-path="url(#p9f05d42c4e)" style="fill: none; stroke-dasharray: 2.96,1.28; stroke-dashoffset: 0; stroke: #b0b0b0; stroke-width: 0.8"/>
     </g>
     <g id="line2d_15">
      <g>
       <use xlink:href="#m677372dce6" x="39.765625" y="31.202339" style="stroke: #000000; stroke-width: 0.8"/>
      </g>
     </g>
     <g id="text_10">
      <!-- 600 -->
      <g transform="translate(13.678125 35.001557) scale(0.1 -0.1)">
       <use xlink:href="#DejaVuSans-36"/>
       <use xlink:href="#DejaVuSans-30" transform="translate(63.623047 0)"/>
       <use xlink:href="#DejaVuSans-30" transform="translate(127.246094 0)"/>
      </g>
     </g>
    </g>
    <g id="ytick_5">
     <g id="line2d_16">
      <path d="M 39.765625 3.799219 
L 390.894333 3.799219 
" clip-path="url(#p9f05d42c4e)" style="fill: none; stroke-dasharray: 2.96,1.28; stroke-dashoffset: 0; stroke: #b0b0b0; stroke-width: 0.8"/>
     </g>
     <g id="line2d_17">
      <g>
       <use xlink:href="#m677372dce6" x="39.765625" y="3.799219" style="stroke: #000000; stroke-width: 0.8"/>
      </g>
     </g>
     <g id="text_11">
      <!-- 800 -->
      <g transform="translate(13.678125 7.598437) scale(0.1 -0.1)">
       <use xlink:href="#DejaVuSans-38"/>
       <use xlink:href="#DejaVuSans-30" transform="translate(63.623047 0)"/>
       <use xlink:href="#DejaVuSans-30" transform="translate(127.246094 0)"/>
      </g>
     </g>
    </g>
    <g id="text_12">
     <!-- Time (seconds) -->
     <g transform="translate(7.598438 96.006809) rotate(-90) scale(0.1 -0.1)">
      <defs>
       <path id="DejaVuSans-54" d="M -19 4666 
L 3928 4666 
L 3928 4134 
L 2272 4134 
L 2272 0 
L 1638 0 
L 1638 4134 
L -19 4134 
L -19 4666 
z
" transform="scale(0.015625)"/>
       <path id="DejaVuSans-69" d="M 603 3500 
L 1178 3500 
L 1178 0 
L 603 0 
L 603 3500 
z
M 603 4863 
L 1178 4863 
L 1178 4134 
L 603 4134 
L 603 4863 
z
" transform="scale(0.015625)"/>
       <path id="DejaVuSans-6d" d="M 3328 2828 
Q 3544 3216 3844 3400 
Q 4144 3584 4550 3584 
Q 5097 3584 5394 3201 
Q 5691 2819 5691 2113 
L 5691 0 
L 5113 0 
L 5113 2094 
Q 5113 2597 4934 2840 
Q 4756 3084 4391 3084 
Q 3944 3084 3684 2787 
Q 3425 2491 3425 1978 
L 3425 0 
L 2847 0 
L 2847 2094 
Q 2847 2600 2669 2842 
Q 2491 3084 2119 3084 
Q 1678 3084 1418 2786 
Q 1159 2488 1159 1978 
L 1159 0 
L 581 0 
L 581 3500 
L 1159 3500 
L 1159 2956 
Q 1356 3278 1631 3431 
Q 1906 3584 2284 3584 
Q 2666 3584 2933 3390 
Q 3200 3197 3328 2828 
z
" transform="scale(0.015625)"/>
       <path id="DejaVuSans-65" d="M 3597 1894 
L 3597 1613 
L 953 1613 
Q 991 1019 1311 708 
Q 1631 397 2203 397 
Q 2534 397 2845 478 
Q 3156 559 3463 722 
L 3463 178 
Q 3153 47 2828 -22 
Q 2503 -91 2169 -91 
Q 1331 -91 842 396 
Q 353 884 353 1716 
Q 353 2575 817 3079 
Q 1281 3584 2069 3584 
Q 2775 3584 3186 3129 
Q 3597 2675 3597 1894 
z
M 3022 2063 
Q 3016 2534 2758 2815 
Q 2500 3097 2075 3097 
Q 1594 3097 1305 2825 
Q 1016 2553 972 2059 
L 3022 2063 
z
" transform="scale(0.015625)"/>
       <path id="DejaVuSans-20" transform="scale(0.015625)"/>
       <path id="DejaVuSans-28" d="M 1984 4856 
Q 1566 4138 1362 3434 
Q 1159 2731 1159 2009 
Q 1159 1288 1364 580 
Q 1569 -128 1984 -844 
L 1484 -844 
Q 1016 -109 783 600 
Q 550 1309 550 2009 
Q 550 2706 781 3412 
Q 1013 4119 1484 4856 
L 1984 4856 
z
" transform="scale(0.015625)"/>
       <path id="DejaVuSans-73" d="M 2834 3397 
L 2834 2853 
Q 2591 2978 2328 3040 
Q 2066 3103 1784 3103 
Q 1356 3103 1142 2972 
Q 928 2841 928 2578 
Q 928 2378 1081 2264 
Q 1234 2150 1697 2047 
L 1894 2003 
Q 2506 1872 2764 1633 
Q 3022 1394 3022 966 
Q 3022 478 2636 193 
Q 2250 -91 1575 -91 
Q 1294 -91 989 -36 
Q 684 19 347 128 
L 347 722 
Q 666 556 975 473 
Q 1284 391 1588 391 
Q 1994 391 2212 530 
Q 2431 669 2431 922 
Q 2431 1156 2273 1281 
Q 2116 1406 1581 1522 
L 1381 1569 
Q 847 1681 609 1914 
Q 372 2147 372 2553 
Q 372 3047 722 3315 
Q 1072 3584 1716 3584 
Q 2034 3584 2315 3537 
Q 2597 3491 2834 3397 
z
" transform="scale(0.015625)"/>
       <path id="DejaVuSans-63" d="M 3122 3366 
L 3122 2828 
Q 2878 2963 2633 3030 
Q 2388 3097 2138 3097 
Q 1578 3097 1268 2742 
Q 959 2388 959 1747 
Q 959 1106 1268 751 
Q 1578 397 2138 397 
Q 2388 397 2633 464 
Q 2878 531 3122 666 
L 3122 134 
Q 2881 22 2623 -34 
Q 2366 -91 2075 -91 
Q 1284 -91 818 406 
Q 353 903 353 1747 
Q 353 2603 823 3093 
Q 1294 3584 2113 3584 
Q 2378 3584 2631 3529 
Q 2884 3475 3122 3366 
z
" transform="scale(0.015625)"/>
       <path id="DejaVuSans-6f" d="M 1959 3097 
Q 1497 3097 1228 2736 
Q 959 2375 959 1747 
Q 959 1119 1226 758 
Q 1494 397 1959 397 
Q 2419 397 2687 759 
Q 2956 1122 2956 1747 
Q 2956 2369 2687 2733 
Q 2419 3097 1959 3097 
z
M 1959 3584 
Q 2709 3584 3137 3096 
Q 3566 2609 3566 1747 
Q 3566 888 3137 398 
Q 2709 -91 1959 -91 
Q 1206 -91 779 398 
Q 353 888 353 1747 
Q 353 2609 779 3096 
Q 1206 3584 1959 3584 
z
" transform="scale(0.015625)"/>
       <path id="DejaVuSans-6e" d="M 3513 2113 
L 3513 0 
L 2938 0 
L 2938 2094 
Q 2938 2591 2744 2837 
Q 2550 3084 2163 3084 
Q 1697 3084 1428 2787 
Q 1159 2491 1159 1978 
L 1159 0 
L 581 0 
L 581 3500 
L 1159 3500 
L 1159 2956 
Q 1366 3272 1645 3428 
Q 1925 3584 2291 3584 
Q 2894 3584 3203 3211 
Q 3513 2838 3513 2113 
z
" transform="scale(0.015625)"/>
       <path id="DejaVuSans-64" d="M 2906 2969 
L 2906 4863 
L 3481 4863 
L 3481 0 
L 2906 0 
L 2906 525 
Q 2725 213 2448 61 
Q 2172 -91 1784 -91 
Q 1150 -91 751 415 
Q 353 922 353 1747 
Q 353 2572 751 3078 
Q 1150 3584 1784 3584 
Q 2172 3584 2448 3432 
Q 2725 3281 2906 2969 
z
M 947 1747 
Q 947 1113 1208 752 
Q 1469 391 1925 391 
Q 2381 391 2643 752 
Q 2906 1113 2906 1747 
Q 2906 2381 2643 2742 
Q 2381 3103 1925 3103 
Q 1469 3103 1208 2742 
Q 947 2381 947 1747 
z
" transform="scale(0.015625)"/>
       <path id="DejaVuSans-29" d="M 513 4856 
L 1013 4856 
Q 1481 4119 1714 3412 
Q 1947 2706 1947 2009 
Q 1947 1309 1714 600 
Q 1481 -109 1013 -844 
L 513 -844 
Q 928 -128 1133 580 
Q 1338 1288 1338 2009 
Q 1338 2731 1133 3434 
Q 928 4138 513 4856 
z
" transform="scale(0.015625)"/>
      </defs>
      <use xlink:href="#DejaVuSans-54"/>
      <use xlink:href="#DejaVuSans-69" transform="translate(57.958984 0)"/>
      <use xlink:href="#DejaVuSans-6d" transform="translate(85.742188 0)"/>
      <use xlink:href="#DejaVuSans-65" transform="translate(183.154297 0)"/>
      <use xlink:href="#DejaVuSans-20" transform="translate(244.677734 0)"/>
      <use xlink:href="#DejaVuSans-28" transform="translate(276.464844 0)"/>
      <use xlink:href="#DejaVuSans-73" transform="translate(315.478516 0)"/>
      <use xlink:href="#DejaVuSans-65" transform="translate(367.578125 0)"/>
      <use xlink:href="#DejaVuSans-63" transform="translate(429.101562 0)"/>
      <use xlink:href="#DejaVuSans-6f" transform="translate(484.082031 0)"/>
      <use xlink:href="#DejaVuSans-6e" transform="translate(545.263672 0)"/>
      <use xlink:href="#DejaVuSans-64" transform="translate(608.642578 0)"/>
      <use xlink:href="#DejaVuSans-73" transform="translate(672.119141 0)"/>
      <use xlink:href="#DejaVuSans-29" transform="translate(724.21875 0)"/>
     </g>
    </g>
   </g>
   <g id="patch_3">
    <path d="M 55.726021 113.411699 
L 74.088188 113.411699 
L 74.088188 113.395257 
L 55.726021 113.395257 
z
" clip-path="url(#p9f05d42c4e)" style="fill: #a6cee3; stroke: #000000; stroke-linejoin: miter"/>
   </g>
   <g id="patch_4">
    <path d="M 62.777093 113.411699 
L 81.13926 113.411699 
L 81.13926 113.395257 
L 62.777093 113.395257 
z
" clip-path="url(#p9f05d42c4e)" style="fill: #a6cee3; stroke: #000000; stroke-linejoin: miter"/>
   </g>
   <g id="patch_5">
    <path d="M 93.331739 113.411699 
L 111.693907 113.411699 
L 111.693907 113.395257 
L 93.331739 113.395257 
z
" clip-path="url(#p9f05d42c4e)" style="fill: #a6cee3; stroke: #000000; stroke-linejoin: miter"/>
   </g>
   <g id="patch_6">
    <path d="M 121.536028 113.411699 
L 139.898196 113.411699 
L 139.898196 113.395162 
L 121.536028 113.395162 
z
" clip-path="url(#p9f05d42c4e)" style="fill: #a6cee3; stroke: #000000; stroke-linejoin: miter"/>
   </g>
   <g id="patch_7">
    <path d="M 156.007937 113.411699 
L 174.370105 113.411699 
L 174.370105 113.395257 
L 156.007937 113.395257 
z
" clip-path="url(#p9f05d42c4e)" style="fill: #a6cee3; stroke: #000000; stroke-linejoin: miter"/>
   </g>
   <g id="patch_8">
    <path d="M 243.754614 113.411699 
L 262.116781 113.411699 
L 262.116781 113.395257 
L 243.754614 113.395257 
z
" clip-path="url(#p9f05d42c4e)" style="fill: #a6cee3; stroke: #000000; stroke-linejoin: miter"/>
   </g>
   <g id="patch_9">
    <path d="M 356.57177 113.411699 
L 374.933937 113.411699 
L 374.933937 113.395257 
L 356.57177 113.395257 
z
" clip-path="url(#p9f05d42c4e)" style="fill: #a6cee3; stroke: #000000; stroke-linejoin: miter"/>
   </g>
   <g id="patch_10">
    <path d="M 55.726021 113.395257 
L 74.088188 113.395257 
L 74.088188 113.390918 
L 55.726021 113.390918 
z
" clip-path="url(#p9f05d42c4e)" style="fill: #1f78b4; stroke: #000000; stroke-linejoin: miter"/>
   </g>
   <g id="patch_11">
    <path d="M 62.777093 113.395257 
L 81.13926 113.395257 
L 81.13926 113.391146 
L 62.777093 113.391146 
z
" clip-path="url(#p9f05d42c4e)" style="fill: #1f78b4; stroke: #000000; stroke-linejoin: miter"/>
   </g>
   <g id="patch_12">
    <path d="M 93.331739 113.395257 
L 111.693907 113.395257 
L 111.693907 113.391146 
L 93.331739 113.391146 
z
" clip-path="url(#p9f05d42c4e)" style="fill: #1f78b4; stroke: #000000; stroke-linejoin: miter"/>
   </g>
   <g id="patch_13">
    <path d="M 121.536028 113.395162 
L 139.898196 113.395162 
L 139.898196 113.390768 
L 121.536028 113.390768 
z
" clip-path="url(#p9f05d42c4e)" style="fill: #1f78b4; stroke: #000000; stroke-linejoin: miter"/>
   </g>
   <g id="patch_14">
    <path d="M 156.007937 113.395257 
L 174.370105 113.395257 
L 174.370105 113.391146 
L 156.007937 113.391146 
z
" clip-path="url(#p9f05d42c4e)" style="fill: #1f78b4; stroke: #000000; stroke-linejoin: miter"/>
   </g>
   <g id="patch_15">
    <path d="M 243.754614 113.395257 
L 262.116781 113.395257 
L 262.116781 113.391146 
L 243.754614 113.391146 
z
" clip-path="url(#p9f05d42c4e)" style="fill: #1f78b4; stroke: #000000; stroke-linejoin: miter"/>
   </g>
   <g id="patch_16">
    <path d="M 356.57177 113.395257 
L 374.933937 113.395257 
L 374.933937 113.391146 
L 356.57177 113.391146 
z
" clip-path="url(#p9f05d42c4e)" style="fill: #1f78b4; stroke: #000000; stroke-linejoin: miter"/>
   </g>
   <g id="patch_17">
    <path d="M 55.726021 113.390918 
L 74.088188 113.390918 
L 74.088188 113.335883 
L 55.726021 113.335883 
z
" clip-path="url(#p9f05d42c4e)" style="fill: #b2df8a; stroke: #000000; stroke-linejoin: miter"/>
   </g>
   <g id="patch_18">
    <path d="M 62.777093 113.391146 
L 81.13926 113.391146 
L 81.13926 113.310992 
L 62.777093 113.310992 
z
" clip-path="url(#p9f05d42c4e)" style="fill: #b2df8a; stroke: #000000; stroke-linejoin: miter"/>
   </g>
   <g id="patch_19">
    <path d="M 93.331739 113.391146 
L 111.693907 113.391146 
L 111.693907 113.204805 
L 93.331739 113.204805 
z
" clip-path="url(#p9f05d42c4e)" style="fill: #b2df8a; stroke: #000000; stroke-linejoin: miter"/>
   </g>
   <g id="patch_20">
    <path d="M 121.536028 113.390768 
L 139.898196 113.390768 
L 139.898196 113.105729 
L 121.536028 113.105729 
z
" clip-path="url(#p9f05d42c4e)" style="fill: #b2df8a; stroke: #000000; stroke-linejoin: miter"/>
   </g>
   <g id="patch_21">
    <path d="M 156.007937 113.391146 
L 174.370105 113.391146 
L 174.370105 112.984667 
L 156.007937 112.984667 
z
" clip-path="url(#p9f05d42c4e)" style="fill: #b2df8a; stroke: #000000; stroke-linejoin: miter"/>
   </g>
   <g id="patch_22">
    <path d="M 243.754614 113.391146 
L 262.116781 113.391146 
L 262.116781 112.665192 
L 243.754614 112.665192 
z
" clip-path="url(#p9f05d42c4e)" style="fill: #b2df8a; stroke: #000000; stroke-linejoin: miter"/>
   </g>
   <g id="patch_23">
    <path d="M 356.57177 113.391146 
L 374.933937 113.391146 
L 374.933937 112.243869 
L 356.57177 112.243869 
z
" clip-path="url(#p9f05d42c4e)" style="fill: #b2df8a; stroke: #000000; stroke-linejoin: miter"/>
   </g>
   <g id="patch_24">
    <path d="M 55.726021 113.335883 
L 74.088188 113.335883 
L 74.088188 113.335655 
L 55.726021 113.335655 
z
" clip-path="url(#p9f05d42c4e)" style="fill: #33a02c; stroke: #000000; stroke-linejoin: miter"/>
   </g>
   <g id="patch_25">
    <path d="M 62.777093 113.310992 
L 81.13926 113.310992 
L 81.13926 113.448008 
L 62.777093 113.448008 
z
" clip-path="url(#p9f05d42c4e)" style="fill: #33a02c; stroke: #000000; stroke-linejoin: miter"/>
   </g>
   <g id="patch_26">
    <path d="M 93.331739 113.204805 
L 111.693907 113.204805 
L 111.693907 113.204805 
L 93.331739 113.204805 
z
" clip-path="url(#p9f05d42c4e)" style="fill: #33a02c; stroke: #000000; stroke-linejoin: miter"/>
   </g>
   <g id="patch_27">
    <path d="M 121.536028 113.105729 
L 139.898196 113.105729 
L 139.898196 113.105492 
L 121.536028 113.105492 
z
" clip-path="url(#p9f05d42c4e)" style="fill: #33a02c; stroke: #000000; stroke-linejoin: miter"/>
   </g>
   <g id="patch_28">
    <path d="M 156.007937 112.984667 
L 174.370105 112.984667 
L 174.370105 112.984667 
L 156.007937 112.984667 
z
" clip-path="url(#p9f05d42c4e)" style="fill: #33a02c; stroke: #000000; stroke-linejoin: miter"/>
   </g>
   <g id="patch_29">
    <path d="M 243.754614 112.665192 
L 262.116781 112.665192 
L 262.116781 112.665192 
L 243.754614 112.665192 
z
" clip-path="url(#p9f05d42c4e)" style="fill: #33a02c; stroke: #000000; stroke-linejoin: miter"/>
   </g>
   <g id="patch_30">
    <path d="M 356.57177 112.243869 
L 374.933937 112.243869 
L 374.933937 112.243869 
L 356.57177 112.243869 
z
" clip-path="url(#p9f05d42c4e)" style="fill: #33a02c; stroke: #000000; stroke-linejoin: miter"/>
   </g>
   <g id="patch_31">
    <path d="M 55.726021 113.335655 
L 74.088188 113.335655 
L 74.088188 112.650577 
L 55.726021 112.650577 
z
" clip-path="url(#p9f05d42c4e)" style="fill: #fb9a99; stroke: #000000; stroke-linejoin: miter"/>
   </g>
   <g id="patch_32">
    <path d="M 62.777093 113.448008 
L 81.13926 113.448008 
L 81.13926 113.338395 
L 62.777093 113.338395 
z
" clip-path="url(#p9f05d42c4e)" style="fill: #fb9a99; stroke: #000000; stroke-linejoin: miter"/>
   </g>
   <g id="patch_33">
    <path d="M 93.331739 113.204805 
L 111.693907 113.204805 
L 111.693907 109.902729 
L 93.331739 109.902729 
z
" clip-path="url(#p9f05d42c4e)" style="fill: #fb9a99; stroke: #000000; stroke-linejoin: miter"/>
   </g>
   <g id="patch_34">
    <path d="M 121.536028 113.105492 
L 139.898196 113.105492 
L 139.898196 107.123533 
L 121.536028 107.123533 
z
" clip-path="url(#p9f05d42c4e)" style="fill: #fb9a99; stroke: #000000; stroke-linejoin: miter"/>
   </g>
   <g id="patch_35">
    <path d="M 156.007937 112.984667 
L 174.370105 112.984667 
L 174.370105 102.968598 
L 156.007937 102.968598 
z
" clip-path="url(#p9f05d42c4e)" style="fill: #fb9a99; stroke: #000000; stroke-linejoin: miter"/>
   </g>
   <g id="patch_36">
    <path d="M 243.754614 112.665192 
L 262.116781 112.665192 
L 262.116781 88.425306 
L 243.754614 88.425306 
z
" clip-path="url(#p9f05d42c4e)" style="fill: #fb9a99; stroke: #000000; stroke-linejoin: miter"/>
   </g>
   <g id="patch_37">
    <path d="M 356.57177 112.243869 
L 374.933937 112.243869 
L 374.933937 60.946599 
L 356.57177 60.946599 
z
" clip-path="url(#p9f05d42c4e)" style="fill: #fb9a99; stroke: #000000; stroke-linejoin: miter"/>
   </g>
   <g id="patch_38">
    <path d="M 55.726021 112.650577 
L 74.088188 112.650577 
L 74.088188 111.965499 
L 55.726021 111.965499 
z
" clip-path="url(#p9f05d42c4e)" style="fill: #e31a1c; stroke: #000000; stroke-linejoin: miter"/>
   </g>
   <g id="patch_39">
    <path d="M 62.777093 113.338395 
L 81.13926 113.338395 
L 81.13926 113.227641 
L 62.777093 113.227641 
z
" clip-path="url(#p9f05d42c4e)" style="fill: #e31a1c; stroke: #000000; stroke-linejoin: miter"/>
   </g>
   <g id="patch_40">
    <path d="M 93.331739 109.902729 
L 111.693907 109.902729 
L 111.693907 106.600425 
L 93.331739 106.600425 
z
" clip-path="url(#p9f05d42c4e)" style="fill: #e31a1c; stroke: #000000; stroke-linejoin: miter"/>
   </g>
   <g id="patch_41">
    <path d="M 121.536028 107.123533 
L 139.898196 107.123533 
L 139.898196 101.141243 
L 121.536028 101.141243 
z
" clip-path="url(#p9f05d42c4e)" style="fill: #e31a1c; stroke: #000000; stroke-linejoin: miter"/>
   </g>
   <g id="patch_42">
    <path d="M 156.007937 102.968598 
L 174.370105 102.968598 
L 174.370105 92.951844 
L 156.007937 92.951844 
z
" clip-path="url(#p9f05d42c4e)" style="fill: #e31a1c; stroke: #000000; stroke-linejoin: miter"/>
   </g>
   <g id="patch_43">
    <path d="M 243.754614 88.425306 
L 262.116781 88.425306 
L 262.116781 64.182907 
L 243.754614 64.182907 
z
" clip-path="url(#p9f05d42c4e)" style="fill: #e31a1c; stroke: #000000; stroke-linejoin: miter"/>
   </g>
   <g id="patch_44">
    <path d="M 356.57177 60.946599 
L 374.933937 60.946599 
L 374.933937 9.647045 
L 356.57177 9.647045 
z
" clip-path="url(#p9f05d42c4e)" style="fill: #e31a1c; stroke: #000000; stroke-linejoin: miter"/>
   </g>
   <g id="patch_45">
    <path d="M 55.726021 111.965499 
L 74.088188 111.965499 
L 74.088188 111.880549 
L 55.726021 111.880549 
z
" clip-path="url(#p9f05d42c4e)" style="fill: #fdbf6f; stroke: #000000; stroke-linejoin: miter"/>
   </g>
   <g id="patch_46">
    <path d="M 62.777093 113.227641 
L 81.13926 113.227641 
L 81.13926 113.227641 
L 62.777093 113.227641 
z
" clip-path="url(#p9f05d42c4e)" style="fill: #fdbf6f; stroke: #000000; stroke-linejoin: miter"/>
   </g>
   <g id="patch_47">
    <path d="M 93.331739 106.600425 
L 111.693907 106.600425 
L 111.693907 106.297392 
L 93.331739 106.297392 
z
" clip-path="url(#p9f05d42c4e)" style="fill: #fdbf6f; stroke: #000000; stroke-linejoin: miter"/>
   </g>
   <g id="patch_48">
    <path d="M 121.536028 101.141243 
L 139.898196 101.141243 
L 139.898196 100.673736 
L 121.536028 100.673736 
z
" clip-path="url(#p9f05d42c4e)" style="fill: #fdbf6f; stroke: #000000; stroke-linejoin: miter"/>
   </g>
   <g id="patch_49">
    <path d="M 156.007937 92.951844 
L 174.370105 92.951844 
L 174.370105 92.28298 
L 156.007937 92.28298 
z
" clip-path="url(#p9f05d42c4e)" style="fill: #fdbf6f; stroke: #000000; stroke-linejoin: miter"/>
   </g>
   <g id="patch_50">
    <path d="M 243.754614 64.182907 
L 262.116781 64.182907 
L 262.116781 62.990643 
L 243.754614 62.990643 
z
" clip-path="url(#p9f05d42c4e)" style="fill: #fdbf6f; stroke: #000000; stroke-linejoin: miter"/>
   </g>
   <g id="patch_51">
    <path d="M 356.57177 9.647045 
L 374.933937 9.647045 
L 374.933937 7.771301 
L 356.57177 7.771301 
z
" clip-path="url(#p9f05d42c4e)" style="fill: #fdbf6f; stroke: #000000; stroke-linejoin: miter"/>
   </g>
   <g id="patch_52">
    <path d="M 55.726021 111.880549 
L 74.088188 111.880549 
L 74.088188 111.823688 
L 55.726021 111.823688 
z
" clip-path="url(#p9f05d42c4e)" style="fill: #ff7f00; stroke: #000000; stroke-linejoin: miter"/>
   </g>
   <g id="patch_53">
    <path d="M 62.777093 113.227641 
L 81.13926 113.227641 
L 81.13926 113.227641 
L 62.777093 113.227641 
z
" clip-path="url(#p9f05d42c4e)" style="fill: #ff7f00; stroke: #000000; stroke-linejoin: miter"/>
   </g>
   <g id="patch_54">
    <path d="M 93.331739 106.297392 
L 111.693907 106.297392 
L 111.693907 106.223632 
L 93.331739 106.223632 
z
" clip-path="url(#p9f05d42c4e)" style="fill: #ff7f00; stroke: #000000; stroke-linejoin: miter"/>
   </g>
   <g id="patch_55">
    <path d="M 121.536028 100.673736 
L 139.898196 100.673736 
L 139.898196 100.580896 
L 121.536028 100.580896 
z
" clip-path="url(#p9f05d42c4e)" style="fill: #ff7f00; stroke: #000000; stroke-linejoin: miter"/>
   </g>
   <g id="patch_56">
    <path d="M 156.007937 92.28298 
L 174.370105 92.28298 
L 174.370105 92.172682 
L 156.007937 92.172682 
z
" clip-path="url(#p9f05d42c4e)" style="fill: #ff7f00; stroke: #000000; stroke-linejoin: miter"/>
   </g>
   <g id="patch_57">
    <path d="M 243.754614 62.990643 
L 262.116781 62.990643 
L 262.116781 62.838556 
L 243.754614 62.838556 
z
" clip-path="url(#p9f05d42c4e)" style="fill: #ff7f00; stroke: #000000; stroke-linejoin: miter"/>
   </g>
   <g id="patch_58">
    <path d="M 356.57177 7.771301 
L 374.933937 7.771301 
L 374.933937 7.547737 
L 356.57177 7.547737 
z
" clip-path="url(#p9f05d42c4e)" style="fill: #ff7f00; stroke: #000000; stroke-linejoin: miter"/>
   </g>
   <g id="patch_59">
    <path d="M 55.726021 111.823688 
L 74.088188 111.823688 
L 74.088188 111.81638 
L 55.726021 111.81638 
z
" clip-path="url(#p9f05d42c4e)" style="fill: #cab2d6; stroke: #000000; stroke-linejoin: miter"/>
   </g>
   <g id="patch_60">
    <path d="M 62.777093 113.227641 
L 81.13926 113.227641 
L 81.13926 113.086287 
L 62.777093 113.086287 
z
" clip-path="url(#p9f05d42c4e)" style="fill: #cab2d6; stroke: #000000; stroke-linejoin: miter"/>
   </g>
   <g id="patch_61">
    <path d="M 93.331739 106.223632 
L 111.693907 106.223632 
L 111.693907 106.216324 
L 93.331739 106.216324 
z
" clip-path="url(#p9f05d42c4e)" style="fill: #cab2d6; stroke: #000000; stroke-linejoin: miter"/>
   </g>
   <g id="patch_62">
    <path d="M 121.536028 100.580896 
L 139.898196 100.580896 
L 139.898196 100.573762 
L 121.536028 100.573762 
z
" clip-path="url(#p9f05d42c4e)" style="fill: #cab2d6; stroke: #000000; stroke-linejoin: miter"/>
   </g>
   <g id="patch_63">
    <path d="M 156.007937 92.172682 
L 174.370105 92.172682 
L 174.370105 92.165146 
L 156.007937 92.165146 
z
" clip-path="url(#p9f05d42c4e)" style="fill: #cab2d6; stroke: #000000; stroke-linejoin: miter"/>
   </g>
   <g id="patch_64">
    <path d="M 243.754614 62.838556 
L 262.116781 62.838556 
L 262.116781 62.830106 
L 243.754614 62.830106 
z
" clip-path="url(#p9f05d42c4e)" style="fill: #cab2d6; stroke: #000000; stroke-linejoin: miter"/>
   </g>
   <g id="patch_65">
    <path d="M 356.57177 7.547737 
L 374.933937 7.547737 
L 374.933937 7.537689 
L 356.57177 7.537689 
z
" clip-path="url(#p9f05d42c4e)" style="fill: #cab2d6; stroke: #000000; stroke-linejoin: miter"/>
   </g>
   <g id="line2d_18">
    <path d="M 64.907104 111.81638 
L 71.958177 113.086287 
L 102.512823 106.216324 
L 130.717112 100.573762 
L 165.189021 92.165146 
L 252.935698 62.830106 
L 365.752854 7.537689 
" clip-path="url(#p9f05d42c4e)" style="fill: none; stroke-dasharray: 7.4,3.2; stroke-dashoffset: 0; stroke: #000000; stroke-width: 2"/>
   </g>
   <g id="line2d_19">
    <path d="M 39.765625 112.718057 
L 390.894333 112.718057 
" clip-path="url(#p9f05d42c4e)" style="fill: none; stroke-dasharray: 7.4,3.2; stroke-dashoffset: 0; stroke: #ff0000; stroke-width: 2"/>
   </g>
   <g id="patch_66">
    <path d="M 39.765625 113.448008 
L 39.765625 2.242173 
" style="fill: none; stroke: #000000; stroke-width: 0.8; stroke-linejoin: miter; stroke-linecap: square"/>
   </g>
   <g id="patch_67">
    <path d="M 390.894333 113.448008 
L 390.894333 2.242173 
" style="fill: none; stroke: #000000; stroke-width: 0.8; stroke-linejoin: miter; stroke-linecap: square"/>
   </g>
   <g id="patch_68">
    <path d="M 39.765625 113.448008 
L 390.894333 113.448008 
" style="fill: none; stroke: #000000; stroke-width: 0.8; stroke-linejoin: miter; stroke-linecap: square"/>
   </g>
   <g id="patch_69">
    <path d="M 39.765625 2.242173 
L 390.894333 2.242173 
" style="fill: none; stroke: #000000; stroke-width: 0.8; stroke-linejoin: miter; stroke-linecap: square"/>
   </g>
  </g>
 </g>
 <defs>
  <clipPath id="p9f05d42c4e">
   <rect x="39.765625" y="2.242173" width="351.128708" height="111.205834"/>
  </clipPath>
 </defs>
</svg>
