<?xml version="1.0" encoding="utf-8" standalone="no"?>
<!DOCTYPE svg PUBLIC "-//W3C//DTD SVG 1.1//EN"
  "http://www.w3.org/Graphics/SVG/1.1/DTD/svg11.dtd">
<svg xmlns:xlink="http://www.w3.org/1999/xlink" width="395.695625pt" height="143.19625pt" viewBox="0 0 395.695625 143.19625" xmlns="http://www.w3.org/2000/svg" version="1.1">
 <metadata>
  <rdf:RDF xmlns:dc="http://purl.org/dc/elements/1.1/" xmlns:cc="http://creativecommons.org/ns#" xmlns:rdf="http://www.w3.org/1999/02/22-rdf-syntax-ns#">
   <cc:Work>
    <dc:type rdf:resource="http://purl.org/dc/dcmitype/StillImage"/>
    <dc:date>2026-03-06T00:22:26.773520</dc:date>
    <dc:format>image/svg+xml</dc:format>
    <dc:creator>
     <cc:Agent>
      <dc:title>Matplotlib v3.10.3, https://matplotlib.org/</dc:title>
     </cc:Agent>
    </dc:creator>
   </cc:Work>
  </rdf:RDF>
 </metadata>
 <defs>
  <style type="text/css">*{stroke-linejoin: round; stroke-linecap: butt}</style>
 </defs>
 <g id="figure_1">
  <g id="patch_1">
   <path d="M 0 143.19625 
L 395.695625 143.19625 
L 395.695625 0 
L 0 0 
z
" style="fill: #ffffff"/>
  </g>
  <g id="axes_1">
   <g id="patch_2">
    <path d="M 39.765625 112.84 
L 395.695625 112.84 
L 395.695625 0 
L 39.765625 0 
z
" style="fill: #ffffff"/>
   </g>
   <g id="matplotlib.axis_1">
    <g id="xtick_1">
     <g id="line2d_1">
      <defs>
       <path id="mdcd1353b1d" d="M 0 0 
L 0 3.5 
" style="stroke: #000000; stroke-width: 0.8"/>
      </defs>
      <g>
       <use xlink:href="#mdcd1353b1d" x="61.284992" y="112.84" style="stroke: #000000; stroke-width: 0.8"/>
      </g>
     </g>
     <g id="text_1">
      <!-- 1 -->
      <g transform="translate(58.103742 127.438437) scale(0.1 -0.1)">
       <defs>
        <path id="DejaVuSans-31" d="M 794 531 
L 1825 531 
L 1825 4091 
L 703 3866 
L 703 4441 
L 1819 4666 
L 2450 4666 
L 2450 531 
L 3481 531 
L 3481 0 
L 794 0 
L 794 531 
z
" transform="scale(0.015625)"/>
       </defs>
       <use xlink:href="#DejaVuSans-31"/>
      </g>
     </g>
    </g>
    <g id="xtick_2">
     <g id="line2d_2">
      <g>
       <use xlink:href="#mdcd1353b1d" x="72.074346" y="112.84" style="stroke: #000000; stroke-width: 0.8"/>
      </g>
     </g>
     <g id="text_2">
      <!-- 2 -->
      <g transform="translate(68.893096 127.438437) scale(0.1 -0.1)">
       <defs>
        <path id="DejaVuSans-32" d="M 1228 531 
L 3431 531 
L 3431 0 
L 469 0 
L 469 531 
Q 828 903 1448 1529 
Q 2069 2156 2228 2338 
Q 2531 2678 2651 2914 
Q 2772 3150 2772 3378 
Q 2772 3750 2511 3984 
Q 2250 4219 1831 4219 
Q 1534 4219 1204 4116 
Q 875 4013 500 3803 
L 500 4441 
Q 881 4594 1212 4672 
Q 1544 4750 1819 4750 
Q 2544 4750 2975 4387 
Q 3406 4025 3406 3419 
Q 3406 3131 3298 2873 
Q 3191 2616 2906 2266 
Q 2828 2175 2409 1742 
Q 1991 1309 1228 531 
z
" transform="scale(0.015625)"/>
       </defs>
       <use xlink:href="#DejaVuSans-32"/>
      </g>
     </g>
    </g>
    <g id="xtick_3">
     <g id="line2d_3">
      <g>
       <use xlink:href="#mdcd1353b1d" x="104.442408" y="112.84" style="stroke: #000000; stroke-width: 0.8"/>
      </g>
     </g>
     <g id="text_3">
      <!-- 5 -->
      <g transform="translate(101.261158 127.438437) scale(0.1 -0.1)">
       <defs>
        <path id="DejaVuSans-35" d="M 691 4666 
L 3169 4666 
L 3169 4134 
L 1269 4134 
L 1269 2991 
Q 1406 3038 1543 3061 
Q 1681 3084 1819 3084 
Q 2600 3084 3056 2656 
Q 3513 2228 3513 1497 
Q 3513 744 3044 326 
Q 2575 -91 1722 -91 
Q 1428 -91 1123 -41 
Q 819 9 494 109 
L 494 744 
Q 775 591 1075 516 
Q 1375 441 1709 441 
Q 2250 441 2565 725 
Q 2881 1009 2881 1497 
Q 2881 1984 2565 2268 
Q 2250 2553 1709 2553 
Q 1456 2553 1204 2497 
Q 953 2441 691 2322 
L 691 4666 
z
" transform="scale(0.015625)"/>
       </defs>
       <use xlink:href="#DejaVuSans-35"/>
      </g>
     </g>
    </g>
    <g id="xtick_4">
     <g id="line2d_4">
      <g>
       <use xlink:href="#mdcd1353b1d" x="136.81047" y="112.84" style="stroke: #000000; stroke-width: 0.8"/>
      </g>
     </g>
     <g id="text_4">
      <!-- 8 -->
      <g transform="translate(133.62922 127.438437) scale(0.1 -0.1)">
       <defs>
        <path id="DejaVuSans-38" d="M 2034 2216 
Q 1584 2216 1326 1975 
Q 1069 1734 1069 1313 
Q 1069 891 1326 650 
Q 1584 409 2034 409 
Q 2484 409 2743 651 
Q 3003 894 3003 1313 
Q 3003 1734 2745 1975 
Q 2488 2216 2034 2216 
z
M 1403 2484 
Q 997 2584 770 2862 
Q 544 3141 544 3541 
Q 544 4100 942 4425 
Q 1341 4750 2034 4750 
Q 2731 4750 3128 4425 
Q 3525 4100 3525 3541 
Q 3525 3141 3298 2862 
Q 3072 2584 2669 2484 
Q 3125 2378 3379 2068 
Q 3634 1759 3634 1313 
Q 3634 634 3220 271 
Q 2806 -91 2034 -91 
Q 1263 -91 848 271 
Q 434 634 434 1313 
Q 434 1759 690 2068 
Q 947 2378 1403 2484 
z
M 1172 3481 
Q 1172 3119 1398 2916 
Q 1625 2713 2034 2713 
Q 2441 2713 2670 2916 
Q 2900 3119 2900 3481 
Q 2900 3844 2670 4047 
Q 2441 4250 2034 4250 
Q 1625 4250 1398 4047 
Q 1172 3844 1172 3481 
z
" transform="scale(0.015625)"/>
       </defs>
       <use xlink:href="#DejaVuSans-38"/>
      </g>
     </g>
    </g>
    <g id="xtick_5">
     <g id="line2d_5">
      <g>
       <use xlink:href="#mdcd1353b1d" x="158.389178" y="112.84" style="stroke: #000000; stroke-width: 0.8"/>
      </g>
     </g>
     <g id="text_5">
      <!-- 10 -->
      <g transform="translate(152.026678 127.438437) scale(0.1 -0.1)">
       <defs>
        <path id="DejaVuSans-30" d="M 2034 4250 
Q 1547 4250 1301 3770 
Q 1056 3291 1056 2328 
Q 1056 1369 1301 889 
Q 1547 409 2034 409 
Q 2525 409 2770 889 
Q 3016 1369 3016 2328 
Q 3016 3291 2770 3770 
Q 2525 4250 2034 4250 
z
M 2034 4750 
Q 2819 4750 3233 4129 
Q 3647 3509 3647 2328 
Q 3647 1150 3233 529 
Q 2819 -91 2034 -91 
Q 1250 -91 836 529 
Q 422 1150 422 2328 
Q 422 3509 836 4129 
Q 1250 4750 2034 4750 
z
" transform="scale(0.015625)"/>
       </defs>
       <use xlink:href="#DejaVuSans-31"/>
       <use xlink:href="#DejaVuSans-30" transform="translate(63.623047 0)"/>
      </g>
     </g>
    </g>
    <g id="xtick_6">
     <g id="line2d_6">
      <g>
       <use xlink:href="#mdcd1353b1d" x="212.335948" y="112.84" style="stroke: #000000; stroke-width: 0.8"/>
      </g>
     </g>
     <g id="text_6">
      <!-- 15 -->
      <g transform="translate(205.973448 127.438437) scale(0.1 -0.1)">
       <use xlink:href="#DejaVuSans-31"/>
       <use xlink:href="#DejaVuSans-35" transform="translate(63.623047 0)"/>
      </g>
     </g>
    </g>
    <g id="xtick_7">
     <g id="line2d_7">
      <g>
       <use xlink:href="#mdcd1353b1d" x="266.282718" y="112.84" style="stroke: #000000; stroke-width: 0.8"/>
      </g>
     </g>
     <g id="text_7">
      <!-- 20 -->
      <g transform="translate(259.920218 127.438437) scale(0.1 -0.1)">
       <use xlink:href="#DejaVuSans-32"/>
       <use xlink:href="#DejaVuSans-30" transform="translate(63.623047 0)"/>
      </g>
     </g>
    </g>
    <g id="xtick_8">
     <g id="line2d_8">
      <g>
       <use xlink:href="#mdcd1353b1d" x="320.229488" y="112.84" style="stroke: #000000; stroke-width: 0.8"/>
      </g>
     </g>
     <g id="text_8">
      <!-- 25 -->
      <g transform="translate(313.866988 127.438437) scale(0.1 -0.1)">
       <use xlink:href="#DejaVuSans-32"/>
       <use xlink:href="#DejaVuSans-35" transform="translate(63.623047 0)"/>
      </g>
     </g>
    </g>
    <g id="xtick_9">
     <g id="line2d_9">
      <g>
       <use xlink:href="#mdcd1353b1d" x="374.176258" y="112.84" style="stroke: #000000; stroke-width: 0.8"/>
      </g>
     </g>
     <g id="text_9">
      <!-- 30 -->
      <g transform="translate(367.813758 127.438437) scale(0.1 -0.1)">
       <defs>
        <path id="DejaVuSans-33" d="M 2597 2516 
Q 3050 2419 3304 2112 
Q 3559 1806 3559 1356 
Q 3559 666 3084 287 
Q 2609 -91 1734 -91 
Q 1441 -91 1130 -33 
Q 819 25 488 141 
L 488 750 
Q 750 597 1062 519 
Q 1375 441 1716 441 
Q 2309 441 2620 675 
Q 2931 909 2931 1356 
Q 2931 1769 2642 2001 
Q 2353 2234 1838 2234 
L 1294 2234 
L 1294 2753 
L 1863 2753 
Q 2328 2753 2575 2939 
Q 2822 3125 2822 3475 
Q 2822 3834 2567 4026 
Q 2313 4219 1838 4219 
Q 1578 4219 1281 4162 
Q 984 4106 628 3988 
L 628 4550 
Q 988 4650 1302 4700 
Q 1616 4750 1894 4750 
Q 2613 4750 3031 4423 
Q 3450 4097 3450 3541 
Q 3450 3153 3228 2886 
Q 3006 2619 2597 2516 
z
" transform="scale(0.015625)"/>
       </defs>
       <use xlink:href="#DejaVuSans-33"/>
       <use xlink:href="#DejaVuSans-30" transform="translate(63.623047 0)"/>
      </g>
     </g>
    </g>
    <g id="text_10">
     <!-- De-noising steps -->
     <g transform="translate(176.036875 141.116562) scale(0.1 -0.1)">
      <defs>
       <path id="DejaVuSans-44" d="M 1259 4147 
L 1259 519 
L 2022 519 
Q 2988 519 3436 956 
Q 3884 1394 3884 2338 
Q 3884 3275 3436 3711 
Q 2988 4147 2022 4147 
L 1259 4147 
z
M 628 4666 
L 1925 4666 
Q 3281 4666 3915 4102 
Q 4550 3538 4550 2338 
Q 4550 1131 3912 565 
Q 3275 0 1925 0 
L 628 0 
L 628 4666 
z
" transform="scale(0.015625)"/>
       <path id="DejaVuSans-65" d="M 3597 1894 
L 3597 1613 
L 953 1613 
Q 991 1019 1311 708 
Q 1631 397 2203 397 
Q 2534 397 2845 478 
Q 3156 559 3463 722 
L 3463 178 
Q 3153 47 2828 -22 
Q 2503 -91 2169 -91 
Q 1331 -91 842 396 
Q 353 884 353 1716 
Q 353 2575 817 3079 
Q 1281 3584 2069 3584 
Q 2775 3584 3186 3129 
Q 3597 2675 3597 1894 
z
M 3022 2063 
Q 3016 2534 2758 2815 
Q 2500 3097 2075 3097 
Q 1594 3097 1305 2825 
Q 1016 2553 972 2059 
L 3022 2063 
z
" transform="scale(0.015625)"/>
       <path id="DejaVuSans-2d" d="M 313 2009 
L 1997 2009 
L 1997 1497 
L 313 1497 
L 313 2009 
z
" transform="scale(0.015625)"/>
       <path id="DejaVuSans-6e" d="M 3513 2113 
L 3513 0 
L 2938 0 
L 2938 2094 
Q 2938 2591 2744 2837 
Q 2550 3084 2163 3084 
Q 1697 3084 1428 2787 
Q 1159 2491 1159 1978 
L 1159 0 
L 581 0 
L 581 3500 
L 1159 3500 
L 1159 2956 
Q 1366 3272 1645 3428 
Q 1925 3584 2291 3584 
Q 2894 3584 3203 3211 
Q 3513 2838 3513 2113 
z
" transform="scale(0.015625)"/>
       <path id="DejaVuSans-6f" d="M 1959 3097 
Q 1497 3097 1228 2736 
Q 959 2375 959 1747 
Q 959 1119 1226 758 
Q 1494 397 1959 397 
Q 2419 397 2687 759 
Q 2956 1122 2956 1747 
Q 2956 2369 2687 2733 
Q 2419 3097 1959 3097 
z
M 1959 3584 
Q 2709 3584 3137 3096 
Q 3566 2609 3566 1747 
Q 3566 888 3137 398 
Q 2709 -91 1959 -91 
Q 1206 -91 779 398 
Q 353 888 353 1747 
Q 353 2609 779 3096 
Q 1206 3584 1959 3584 
z
" transform="scale(0.015625)"/>
       <path id="DejaVuSans-69" d="M 603 3500 
L 1178 3500 
L 1178 0 
L 603 0 
L 603 3500 
z
M 603 4863 
L 1178 4863 
L 1178 4134 
L 603 4134 
L 603 4863 
z
" transform="scale(0.015625)"/>
       <path id="DejaVuSans-73" d="M 2834 3397 
L 2834 2853 
Q 2591 2978 2328 3040 
Q 2066 3103 1784 3103 
Q 1356 3103 1142 2972 
Q 928 2841 928 2578 
Q 928 2378 1081 2264 
Q 1234 2150 1697 2047 
L 1894 2003 
Q 2506 1872 2764 1633 
Q 3022 1394 3022 966 
Q 3022 478 2636 193 
Q 2250 -91 1575 -91 
Q 1294 -91 989 -36 
Q 684 19 347 128 
L 347 722 
Q 666 556 975 473 
Q 1284 391 1588 391 
Q 1994 391 2212 530 
Q 2431 669 2431 922 
Q 2431 1156 2273 1281 
Q 2116 1406 1581 1522 
L 1381 1569 
Q 847 1681 609 1914 
Q 372 2147 372 2553 
Q 372 3047 722 3315 
Q 1072 3584 1716 3584 
Q 2034 3584 2315 3537 
Q 2597 3491 2834 3397 
z
" transform="scale(0.015625)"/>
       <path id="DejaVuSans-67" d="M 2906 1791 
Q 2906 2416 2648 2759 
Q 2391 3103 1925 3103 
Q 1463 3103 1205 2759 
Q 947 2416 947 1791 
Q 947 1169 1205 825 
Q 1463 481 1925 481 
Q 2391 481 2648 825 
Q 2906 1169 2906 1791 
z
M 3481 434 
Q 3481 -459 3084 -895 
Q 2688 -1331 1869 -1331 
Q 1566 -1331 1297 -1286 
Q 1028 -1241 775 -1147 
L 775 -588 
Q 1028 -725 1275 -790 
Q 1522 -856 1778 -856 
Q 2344 -856 2625 -561 
Q 2906 -266 2906 331 
L 2906 616 
Q 2728 306 2450 153 
Q 2172 0 1784 0 
Q 1141 0 747 490 
Q 353 981 353 1791 
Q 353 2603 747 3093 
Q 1141 3584 1784 3584 
Q 2172 3584 2450 3431 
Q 2728 3278 2906 2969 
L 2906 3500 
L 3481 3500 
L 3481 434 
z
" transform="scale(0.015625)"/>
       <path id="DejaVuSans-20" transform="scale(0.015625)"/>
       <path id="DejaVuSans-74" d="M 1172 4494 
L 1172 3500 
L 2356 3500 
L 2356 3053 
L 1172 3053 
L 1172 1153 
Q 1172 725 1289 603 
Q 1406 481 1766 481 
L 2356 481 
L 2356 0 
L 1766 0 
Q 1100 0 847 248 
Q 594 497 594 1153 
L 594 3053 
L 172 3053 
L 172 3500 
L 594 3500 
L 594 4494 
L 1172 4494 
z
" transform="scale(0.015625)"/>
       <path id="DejaVuSans-70" d="M 1159 525 
L 1159 -1331 
L 581 -1331 
L 581 3500 
L 1159 3500 
L 1159 2969 
Q 1341 3281 1617 3432 
Q 1894 3584 2278 3584 
Q 2916 3584 3314 3078 
Q 3713 2572 3713 1747 
Q 3713 922 3314 415 
Q 2916 -91 2278 -91 
Q 1894 -91 1617 61 
Q 1341 213 1159 525 
z
M 3116 1747 
Q 3116 2381 2855 2742 
Q 2594 3103 2138 3103 
Q 1681 3103 1420 2742 
Q 1159 2381 1159 1747 
Q 1159 1113 1420 752 
Q 1681 391 2138 391 
Q 2594 391 2855 752 
Q 3116 1113 3116 1747 
z
" transform="scale(0.015625)"/>
      </defs>
      <use xlink:href="#DejaVuSans-44"/>
      <use xlink:href="#DejaVuSans-65" transform="translate(77.001953 0)"/>
      <use xlink:href="#DejaVuSans-2d" transform="translate(138.525391 0)"/>
      <use xlink:href="#DejaVuSans-6e" transform="translate(174.609375 0)"/>
      <use xlink:href="#DejaVuSans-6f" transform="translate(237.988281 0)"/>
      <use xlink:href="#DejaVuSans-69" transform="translate(299.169922 0)"/>
      <use xlink:href="#DejaVuSans-73" transform="translate(326.953125 0)"/>
      <use xlink:href="#DejaVuSans-69" transform="translate(379.052734 0)"/>
      <use xlink:href="#DejaVuSans-6e" transform="translate(406.835938 0)"/>
      <use xlink:href="#DejaVuSans-67" transform="translate(470.214844 0)"/>
      <use xlink:href="#DejaVuSans-20" transform="translate(533.691406 0)"/>
      <use xlink:href="#DejaVuSans-73" transform="translate(565.478516 0)"/>
      <use xlink:href="#DejaVuSans-74" transform="translate(617.578125 0)"/>
      <use xlink:href="#DejaVuSans-65" transform="translate(656.787109 0)"/>
      <use xlink:href="#DejaVuSans-70" transform="translate(718.310547 0)"/>
      <use xlink:href="#DejaVuSans-73" transform="translate(781.787109 0)"/>
     </g>
    </g>
   </g>
   <g id="matplotlib.axis_2">
    <g id="ytick_1">
     <g id="line2d_10">
      <path d="M 39.765625 112.84 
L 395.695625 112.84 
" clip-path="url(#pc873c2335a)" style="fill: none; stroke-dasharray: 2.96,1.28; stroke-dashoffset: 0; stroke: #b0b0b0; stroke-width: 0.8"/>
     </g>
     <g id="line2d_11">
      <defs>
       <path id="md1de63d10a" d="M 0 0 
L -3.5 0 
" style="stroke: #000000; stroke-width: 0.8"/>
      </defs>
      <g>
       <use xlink:href="#md1de63d10a" x="39.765625" y="112.84" style="stroke: #000000; stroke-width: 0.8"/>
      </g>
     </g>
     <g id="text_11">
      <!-- 0 -->
      <g transform="translate(26.403125 116.639219) scale(0.1 -0.1)">
       <use xlink:href="#DejaVuSans-30"/>
      </g>
     </g>
    </g>
    <g id="ytick_2">
     <g id="line2d_12">
      <path d="M 39.765625 72.817407 
L 395.695625 72.817407 
" clip-path="url(#pc873c2335a)" style="fill: none; stroke-dasharray: 2.96,1.28; stroke-dashoffset: 0; stroke: #b0b0b0; stroke-width: 0.8"/>
     </g>
     <g id="line2d_13">
      <g>
       <use xlink:href="#md1de63d10a" x="39.765625" y="72.817407" style="stroke: #000000; stroke-width: 0.8"/>
      </g>
     </g>
     <g id="text_12">
      <!-- 100 -->
      <g transform="translate(13.678125 76.616625) scale(0.1 -0.1)">
       <use xlink:href="#DejaVuSans-31"/>
       <use xlink:href="#DejaVuSans-30" transform="translate(63.623047 0)"/>
       <use xlink:href="#DejaVuSans-30" transform="translate(127.246094 0)"/>
      </g>
     </g>
    </g>
    <g id="ytick_3">
     <g id="line2d_14">
      <path d="M 39.765625 32.794813 
L 395.695625 32.794813 
" clip-path="url(#pc873c2335a)" style="fill: none; stroke-dasharray: 2.96,1.28; stroke-dashoffset: 0; stroke: #b0b0b0; stroke-width: 0.8"/>
     </g>
     <g id="line2d_15">
      <g>
       <use xlink:href="#md1de63d10a" x="39.765625" y="32.794813" style="stroke: #000000; stroke-width: 0.8"/>
      </g>
     </g>
     <g id="text_13">
      <!-- 200 -->
      <g transform="translate(13.678125 36.594032) scale(0.1 -0.1)">
       <use xlink:href="#DejaVuSans-32"/>
       <use xlink:href="#DejaVuSans-30" transform="translate(63.623047 0)"/>
       <use xlink:href="#DejaVuSans-30" transform="translate(127.246094 0)"/>
      </g>
     </g>
    </g>
    <g id="text_14">
     <!-- Time (seconds) -->
     <g transform="translate(7.598438 94.581719) rotate(-90) scale(0.1 -0.1)">
      <defs>
       <path id="DejaVuSans-54" d="M -19 4666 
L 3928 4666 
L 3928 4134 
L 2272 4134 
L 2272 0 
L 1638 0 
L 1638 4134 
L -19 4134 
L -19 4666 
z
" transform="scale(0.015625)"/>
       <path id="DejaVuSans-6d" d="M 3328 2828 
Q 3544 3216 3844 3400 
Q 4144 3584 4550 3584 
Q 5097 3584 5394 3201 
Q 5691 2819 5691 2113 
L 5691 0 
L 5113 0 
L 5113 2094 
Q 5113 2597 4934 2840 
Q 4756 3084 4391 3084 
Q 3944 3084 3684 2787 
Q 3425 2491 3425 1978 
L 3425 0 
L 2847 0 
L 2847 2094 
Q 2847 2600 2669 2842 
Q 2491 3084 2119 3084 
Q 1678 3084 1418 2786 
Q 1159 2488 1159 1978 
L 1159 0 
L 581 0 
L 581 3500 
L 1159 3500 
L 1159 2956 
Q 1356 3278 1631 3431 
Q 1906 3584 2284 3584 
Q 2666 3584 2933 3390 
Q 3200 3197 3328 2828 
z
" transform="scale(0.015625)"/>
       <path id="DejaVuSans-28" d="M 1984 4856 
Q 1566 4138 1362 3434 
Q 1159 2731 1159 2009 
Q 1159 1288 1364 580 
Q 1569 -128 1984 -844 
L 1484 -844 
Q 1016 -109 783 600 
Q 550 1309 550 2009 
Q 550 2706 781 3412 
Q 1013 4119 1484 4856 
L 1984 4856 
z
" transform="scale(0.015625)"/>
       <path id="DejaVuSans-63" d="M 3122 3366 
L 3122 2828 
Q 2878 2963 2633 3030 
Q 2388 3097 2138 3097 
Q 1578 3097 1268 2742 
Q 959 2388 959 1747 
Q 959 1106 1268 751 
Q 1578 397 2138 397 
Q 2388 397 2633 464 
Q 2878 531 3122 666 
L 3122 134 
Q 2881 22 2623 -34 
Q 2366 -91 2075 -91 
Q 1284 -91 818 406 
Q 353 903 353 1747 
Q 353 2603 823 3093 
Q 1294 3584 2113 3584 
Q 2378 3584 2631 3529 
Q 2884 3475 3122 3366 
z
" transform="scale(0.015625)"/>
       <path id="DejaVuSans-64" d="M 2906 2969 
L 2906 4863 
L 3481 4863 
L 3481 0 
L 2906 0 
L 2906 525 
Q 2725 213 2448 61 
Q 2172 -91 1784 -91 
Q 1150 -91 751 415 
Q 353 922 353 1747 
Q 353 2572 751 3078 
Q 1150 3584 1784 3584 
Q 2172 3584 2448 3432 
Q 2725 3281 2906 2969 
z
M 947 1747 
Q 947 1113 1208 752 
Q 1469 391 1925 391 
Q 2381 391 2643 752 
Q 2906 1113 2906 1747 
Q 2906 2381 2643 2742 
Q 2381 3103 1925 3103 
Q 1469 3103 1208 2742 
Q 947 2381 947 1747 
z
" transform="scale(0.015625)"/>
       <path id="DejaVuSans-29" d="M 513 4856 
L 1013 4856 
Q 1481 4119 1714 3412 
Q 1947 2706 1947 2009 
Q 1947 1309 1714 600 
Q 1481 -109 1013 -844 
L 513 -844 
Q 928 -128 1133 580 
Q 1338 1288 1338 2009 
Q 1338 2731 1133 3434 
Q 928 4138 513 4856 
z
" transform="scale(0.015625)"/>
      </defs>
      <use xlink:href="#DejaVuSans-54"/>
      <use xlink:href="#DejaVuSans-69" transform="translate(57.958984 0)"/>
      <use xlink:href="#DejaVuSans-6d" transform="translate(85.742188 0)"/>
      <use xlink:href="#DejaVuSans-65" transform="translate(183.154297 0)"/>
      <use xlink:href="#DejaVuSans-20" transform="translate(244.677734 0)"/>
      <use xlink:href="#DejaVuSans-28" transform="translate(276.464844 0)"/>
      <use xlink:href="#DejaVuSans-73" transform="translate(315.478516 0)"/>
      <use xlink:href="#DejaVuSans-65" transform="translate(367.578125 0)"/>
      <use xlink:href="#DejaVuSans-63" transform="translate(429.101562 0)"/>
      <use xlink:href="#DejaVuSans-6f" transform="translate(484.082031 0)"/>
      <use xlink:href="#DejaVuSans-6e" transform="translate(545.263672 0)"/>
      <use xlink:href="#DejaVuSans-64" transform="translate(608.642578 0)"/>
      <use xlink:href="#DejaVuSans-73" transform="translate(672.119141 0)"/>
      <use xlink:href="#DejaVuSans-29" transform="translate(724.21875 0)"/>
     </g>
    </g>
   </g>
   <g id="patch_3">
    <path d="M 55.944261 112.84 
L 66.625722 112.84 
L 66.625722 112.791973 
L 55.944261 112.791973 
z
" clip-path="url(#pc873c2335a)" style="fill: #a6cee3; stroke: #000000; stroke-linejoin: miter"/>
   </g>
   <g id="patch_4">
    <path d="M 66.733615 112.84 
L 77.415076 112.84 
L 77.415076 112.791306 
L 66.733615 112.791306 
z
" clip-path="url(#pc873c2335a)" style="fill: #a6cee3; stroke: #000000; stroke-linejoin: miter"/>
   </g>
   <g id="patch_5">
    <path d="M 99.101677 112.84 
L 109.783138 112.84 
L 109.783138 112.791973 
L 99.101677 112.791973 
z
" clip-path="url(#pc873c2335a)" style="fill: #a6cee3; stroke: #000000; stroke-linejoin: miter"/>
   </g>
   <g id="patch_6">
    <path d="M 131.46974 112.84 
L 142.1512 112.84 
L 142.1512 112.791973 
L 131.46974 112.791973 
z
" clip-path="url(#pc873c2335a)" style="fill: #a6cee3; stroke: #000000; stroke-linejoin: miter"/>
   </g>
   <g id="patch_7">
    <path d="M 153.048448 112.84 
L 163.729908 112.84 
L 163.729908 112.791697 
L 153.048448 112.791697 
z
" clip-path="url(#pc873c2335a)" style="fill: #a6cee3; stroke: #000000; stroke-linejoin: miter"/>
   </g>
   <g id="patch_8">
    <path d="M 206.995218 112.84 
L 217.676678 112.84 
L 217.676678 112.791306 
L 206.995218 112.791306 
z
" clip-path="url(#pc873c2335a)" style="fill: #a6cee3; stroke: #000000; stroke-linejoin: miter"/>
   </g>
   <g id="patch_9">
    <path d="M 260.941988 112.84 
L 271.623448 112.84 
L 271.623448 112.791973 
L 260.941988 112.791973 
z
" clip-path="url(#pc873c2335a)" style="fill: #a6cee3; stroke: #000000; stroke-linejoin: miter"/>
   </g>
   <g id="patch_10">
    <path d="M 314.888758 112.84 
L 325.570219 112.84 
L 325.570219 112.791973 
L 314.888758 112.791973 
z
" clip-path="url(#pc873c2335a)" style="fill: #a6cee3; stroke: #000000; stroke-linejoin: miter"/>
   </g>
   <g id="patch_11">
    <path d="M 368.835528 112.84 
L 379.516989 112.84 
L 379.516989 112.789972 
L 368.835528 112.789972 
z
" clip-path="url(#pc873c2335a)" style="fill: #a6cee3; stroke: #000000; stroke-linejoin: miter"/>
   </g>
   <g id="patch_12">
    <path d="M 55.944261 112.791973 
L 66.625722 112.791973 
L 66.625722 112.777965 
L 55.944261 112.777965 
z
" clip-path="url(#pc873c2335a)" style="fill: #1f78b4; stroke: #000000; stroke-linejoin: miter"/>
   </g>
   <g id="patch_13">
    <path d="M 66.733615 112.791306 
L 77.415076 112.791306 
L 77.415076 112.777965 
L 66.733615 112.777965 
z
" clip-path="url(#pc873c2335a)" style="fill: #1f78b4; stroke: #000000; stroke-linejoin: miter"/>
   </g>
   <g id="patch_14">
    <path d="M 99.101677 112.791973 
L 109.783138 112.791973 
L 109.783138 112.777965 
L 99.101677 112.777965 
z
" clip-path="url(#pc873c2335a)" style="fill: #1f78b4; stroke: #000000; stroke-linejoin: miter"/>
   </g>
   <g id="patch_15">
    <path d="M 131.46974 112.791973 
L 142.1512 112.791973 
L 142.1512 112.779299 
L 131.46974 112.779299 
z
" clip-path="url(#pc873c2335a)" style="fill: #1f78b4; stroke: #000000; stroke-linejoin: miter"/>
   </g>
   <g id="patch_16">
    <path d="M 153.048448 112.791697 
L 163.729908 112.791697 
L 163.729908 112.778862 
L 153.048448 112.778862 
z
" clip-path="url(#pc873c2335a)" style="fill: #1f78b4; stroke: #000000; stroke-linejoin: miter"/>
   </g>
   <g id="patch_17">
    <path d="M 206.995218 112.791306 
L 217.676678 112.791306 
L 217.676678 112.778632 
L 206.995218 112.778632 
z
" clip-path="url(#pc873c2335a)" style="fill: #1f78b4; stroke: #000000; stroke-linejoin: miter"/>
   </g>
   <g id="patch_18">
    <path d="M 260.941988 112.791973 
L 271.623448 112.791973 
L 271.623448 112.779299 
L 260.941988 112.779299 
z
" clip-path="url(#pc873c2335a)" style="fill: #1f78b4; stroke: #000000; stroke-linejoin: miter"/>
   </g>
   <g id="patch_19">
    <path d="M 314.888758 112.791973 
L 325.570219 112.791973 
L 325.570219 112.779299 
L 314.888758 112.779299 
z
" clip-path="url(#pc873c2335a)" style="fill: #1f78b4; stroke: #000000; stroke-linejoin: miter"/>
   </g>
   <g id="patch_20">
    <path d="M 368.835528 112.789972 
L 379.516989 112.789972 
L 379.516989 112.775964 
L 368.835528 112.775964 
z
" clip-path="url(#pc873c2335a)" style="fill: #1f78b4; stroke: #000000; stroke-linejoin: miter"/>
   </g>
   <g id="patch_21">
    <path d="M 55.944261 112.777965 
L 66.625722 112.777965 
L 66.625722 111.944828 
L 55.944261 111.944828 
z
" clip-path="url(#pc873c2335a)" style="fill: #b2df8a; stroke: #000000; stroke-linejoin: miter"/>
   </g>
   <g id="patch_22">
    <path d="M 66.733615 112.777965 
L 77.415076 112.777965 
L 77.415076 111.945495 
L 66.733615 111.945495 
z
" clip-path="url(#pc873c2335a)" style="fill: #b2df8a; stroke: #000000; stroke-linejoin: miter"/>
   </g>
   <g id="patch_23">
    <path d="M 99.101677 112.777965 
L 109.783138 112.777965 
L 109.783138 111.945495 
L 99.101677 111.945495 
z
" clip-path="url(#pc873c2335a)" style="fill: #b2df8a; stroke: #000000; stroke-linejoin: miter"/>
   </g>
   <g id="patch_24">
    <path d="M 131.46974 112.779299 
L 142.1512 112.779299 
L 142.1512 111.946162 
L 131.46974 111.946162 
z
" clip-path="url(#pc873c2335a)" style="fill: #b2df8a; stroke: #000000; stroke-linejoin: miter"/>
   </g>
   <g id="patch_25">
    <path d="M 153.048448 112.778862 
L 163.729908 112.778862 
L 163.729908 111.946254 
L 153.048448 111.946254 
z
" clip-path="url(#pc873c2335a)" style="fill: #b2df8a; stroke: #000000; stroke-linejoin: miter"/>
   </g>
   <g id="patch_26">
    <path d="M 206.995218 112.778632 
L 217.676678 112.778632 
L 217.676678 111.946162 
L 206.995218 111.946162 
z
" clip-path="url(#pc873c2335a)" style="fill: #b2df8a; stroke: #000000; stroke-linejoin: miter"/>
   </g>
   <g id="patch_27">
    <path d="M 260.941988 112.779299 
L 271.623448 112.779299 
L 271.623448 111.947496 
L 260.941988 111.947496 
z
" clip-path="url(#pc873c2335a)" style="fill: #b2df8a; stroke: #000000; stroke-linejoin: miter"/>
   </g>
   <g id="patch_28">
    <path d="M 314.888758 112.779299 
L 325.570219 112.779299 
L 325.570219 111.946829 
L 314.888758 111.946829 
z
" clip-path="url(#pc873c2335a)" style="fill: #b2df8a; stroke: #000000; stroke-linejoin: miter"/>
   </g>
   <g id="patch_29">
    <path d="M 368.835528 112.775964 
L 379.516989 112.775964 
L 379.516989 111.944161 
L 368.835528 111.944161 
z
" clip-path="url(#pc873c2335a)" style="fill: #b2df8a; stroke: #000000; stroke-linejoin: miter"/>
   </g>
   <g id="patch_30">
    <path d="M 55.944261 111.944828 
L 66.625722 111.944828 
L 66.625722 111.944828 
L 55.944261 111.944828 
z
" clip-path="url(#pc873c2335a)" style="fill: #33a02c; stroke: #000000; stroke-linejoin: miter"/>
   </g>
   <g id="patch_31">
    <path d="M 66.733615 111.945495 
L 77.415076 111.945495 
L 77.415076 111.945495 
L 66.733615 111.945495 
z
" clip-path="url(#pc873c2335a)" style="fill: #33a02c; stroke: #000000; stroke-linejoin: miter"/>
   </g>
   <g id="patch_32">
    <path d="M 99.101677 111.945495 
L 109.783138 111.945495 
L 109.783138 111.94216 
L 99.101677 111.94216 
z
" clip-path="url(#pc873c2335a)" style="fill: #33a02c; stroke: #000000; stroke-linejoin: miter"/>
   </g>
   <g id="patch_33">
    <path d="M 131.46974 111.946162 
L 142.1512 111.946162 
L 142.1512 111.945495 
L 131.46974 111.945495 
z
" clip-path="url(#pc873c2335a)" style="fill: #33a02c; stroke: #000000; stroke-linejoin: miter"/>
   </g>
   <g id="patch_34">
    <path d="M 153.048448 111.946254 
L 163.729908 111.946254 
L 163.729908 111.945564 
L 153.048448 111.945564 
z
" clip-path="url(#pc873c2335a)" style="fill: #33a02c; stroke: #000000; stroke-linejoin: miter"/>
   </g>
   <g id="patch_35">
    <path d="M 206.995218 111.946162 
L 217.676678 111.946162 
L 217.676678 111.944161 
L 206.995218 111.944161 
z
" clip-path="url(#pc873c2335a)" style="fill: #33a02c; stroke: #000000; stroke-linejoin: miter"/>
   </g>
   <g id="patch_36">
    <path d="M 260.941988 111.947496 
L 271.623448 111.947496 
L 271.623448 111.945495 
L 260.941988 111.945495 
z
" clip-path="url(#pc873c2335a)" style="fill: #33a02c; stroke: #000000; stroke-linejoin: miter"/>
   </g>
   <g id="patch_37">
    <path d="M 314.888758 111.946829 
L 325.570219 111.946829 
L 325.570219 111.945495 
L 314.888758 111.945495 
z
" clip-path="url(#pc873c2335a)" style="fill: #33a02c; stroke: #000000; stroke-linejoin: miter"/>
   </g>
   <g id="patch_38">
    <path d="M 368.835528 111.944161 
L 379.516989 111.944161 
L 379.516989 111.94216 
L 368.835528 111.94216 
z
" clip-path="url(#pc873c2335a)" style="fill: #33a02c; stroke: #000000; stroke-linejoin: miter"/>
   </g>
   <g id="patch_39">
    <path d="M 55.944261 111.944828 
L 66.625722 111.944828 
L 66.625722 110.198509 
L 55.944261 110.198509 
z
" clip-path="url(#pc873c2335a)" style="fill: #fb9a99; stroke: #000000; stroke-linejoin: miter"/>
   </g>
   <g id="patch_40">
    <path d="M 66.733615 111.945495 
L 77.415076 111.945495 
L 77.415076 108.453524 
L 66.733615 108.453524 
z
" clip-path="url(#pc873c2335a)" style="fill: #fb9a99; stroke: #000000; stroke-linejoin: miter"/>
   </g>
   <g id="patch_41">
    <path d="M 99.101677 111.94216 
L 109.783138 111.94216 
L 109.783138 103.207229 
L 99.101677 103.207229 
z
" clip-path="url(#pc873c2335a)" style="fill: #fb9a99; stroke: #000000; stroke-linejoin: miter"/>
   </g>
   <g id="patch_42">
    <path d="M 131.46974 111.945495 
L 142.1512 111.945495 
L 142.1512 97.965603 
L 131.46974 97.965603 
z
" clip-path="url(#pc873c2335a)" style="fill: #fb9a99; stroke: #000000; stroke-linejoin: miter"/>
   </g>
   <g id="patch_43">
    <path d="M 153.048448 111.945564 
L 163.729908 111.945564 
L 163.729908 94.472114 
L 153.048448 94.472114 
z
" clip-path="url(#pc873c2335a)" style="fill: #fb9a99; stroke: #000000; stroke-linejoin: miter"/>
   </g>
   <g id="patch_44">
    <path d="M 206.995218 111.944161 
L 217.676678 111.944161 
L 217.676678 85.736033 
L 206.995218 85.736033 
z
" clip-path="url(#pc873c2335a)" style="fill: #fb9a99; stroke: #000000; stroke-linejoin: miter"/>
   </g>
   <g id="patch_45">
    <path d="M 260.941988 111.945495 
L 271.623448 111.945495 
L 271.623448 76.977755 
L 260.941988 76.977755 
z
" clip-path="url(#pc873c2335a)" style="fill: #fb9a99; stroke: #000000; stroke-linejoin: miter"/>
   </g>
   <g id="patch_46">
    <path d="M 314.888758 111.945495 
L 325.570219 111.945495 
L 325.570219 68.256165 
L 314.888758 68.256165 
z
" clip-path="url(#pc873c2335a)" style="fill: #fb9a99; stroke: #000000; stroke-linejoin: miter"/>
   </g>
   <g id="patch_47">
    <path d="M 368.835528 111.94216 
L 379.516989 111.94216 
L 379.516989 59.502557 
L 368.835528 59.502557 
z
" clip-path="url(#pc873c2335a)" style="fill: #fb9a99; stroke: #000000; stroke-linejoin: miter"/>
   </g>
   <g id="patch_48">
    <path d="M 55.944261 110.198509 
L 66.625722 110.198509 
L 66.625722 108.450189 
L 55.944261 108.450189 
z
" clip-path="url(#pc873c2335a)" style="fill: #e31a1c; stroke: #000000; stroke-linejoin: miter"/>
   </g>
   <g id="patch_49">
    <path d="M 66.733615 108.453524 
L 77.415076 108.453524 
L 77.415076 104.960218 
L 66.733615 104.960218 
z
" clip-path="url(#pc873c2335a)" style="fill: #e31a1c; stroke: #000000; stroke-linejoin: miter"/>
   </g>
   <g id="patch_50">
    <path d="M 99.101677 103.207229 
L 109.783138 103.207229 
L 109.783138 94.470964 
L 99.101677 94.470964 
z
" clip-path="url(#pc873c2335a)" style="fill: #e31a1c; stroke: #000000; stroke-linejoin: miter"/>
   </g>
   <g id="patch_51">
    <path d="M 131.46974 97.965603 
L 142.1512 97.965603 
L 142.1512 83.981709 
L 131.46974 83.981709 
z
" clip-path="url(#pc873c2335a)" style="fill: #e31a1c; stroke: #000000; stroke-linejoin: miter"/>
   </g>
   <g id="patch_52">
    <path d="M 153.048448 94.472114 
L 163.729908 94.472114 
L 163.729908 76.997697 
L 153.048448 76.997697 
z
" clip-path="url(#pc873c2335a)" style="fill: #e31a1c; stroke: #000000; stroke-linejoin: miter"/>
   </g>
   <g id="patch_53">
    <path d="M 206.995218 85.736033 
L 217.676678 85.736033 
L 217.676678 59.524569 
L 206.995218 59.524569 
z
" clip-path="url(#pc873c2335a)" style="fill: #e31a1c; stroke: #000000; stroke-linejoin: miter"/>
   </g>
   <g id="patch_54">
    <path d="M 260.941988 76.977755 
L 271.623448 76.977755 
L 271.623448 42.009348 
L 260.941988 42.009348 
z
" clip-path="url(#pc873c2335a)" style="fill: #e31a1c; stroke: #000000; stroke-linejoin: miter"/>
   </g>
   <g id="patch_55">
    <path d="M 314.888758 68.256165 
L 325.570219 68.256165 
L 325.570219 24.565501 
L 314.888758 24.565501 
z
" clip-path="url(#pc873c2335a)" style="fill: #e31a1c; stroke: #000000; stroke-linejoin: miter"/>
   </g>
   <g id="patch_56">
    <path d="M 368.835528 59.502557 
L 379.516989 59.502557 
L 379.516989 7.052281 
L 368.835528 7.052281 
z
" clip-path="url(#pc873c2335a)" style="fill: #e31a1c; stroke: #000000; stroke-linejoin: miter"/>
   </g>
   <g id="patch_57">
    <path d="M 55.944261 108.450189 
L 66.625722 108.450189 
L 66.625722 107.084751 
L 55.944261 107.084751 
z
" clip-path="url(#pc873c2335a)" style="fill: #fdbf6f; stroke: #000000; stroke-linejoin: miter"/>
   </g>
   <g id="patch_58">
    <path d="M 66.733615 104.960218 
L 77.415076 104.960218 
L 77.415076 103.595448 
L 66.733615 103.595448 
z
" clip-path="url(#pc873c2335a)" style="fill: #fdbf6f; stroke: #000000; stroke-linejoin: miter"/>
   </g>
   <g id="patch_59">
    <path d="M 99.101677 94.470964 
L 109.783138 94.470964 
L 109.783138 93.104859 
L 99.101677 93.104859 
z
" clip-path="url(#pc873c2335a)" style="fill: #fdbf6f; stroke: #000000; stroke-linejoin: miter"/>
   </g>
   <g id="patch_60">
    <path d="M 131.46974 83.981709 
L 142.1512 83.981709 
L 142.1512 82.615605 
L 131.46974 82.615605 
z
" clip-path="url(#pc873c2335a)" style="fill: #fdbf6f; stroke: #000000; stroke-linejoin: miter"/>
   </g>
   <g id="patch_61">
    <path d="M 153.048448 76.997697 
L 163.729908 76.997697 
L 163.729908 75.632099 
L 153.048448 75.632099 
z
" clip-path="url(#pc873c2335a)" style="fill: #fdbf6f; stroke: #000000; stroke-linejoin: miter"/>
   </g>
   <g id="patch_62">
    <path d="M 206.995218 59.524569 
L 217.676678 59.524569 
L 217.676678 58.158465 
L 206.995218 58.158465 
z
" clip-path="url(#pc873c2335a)" style="fill: #fdbf6f; stroke: #000000; stroke-linejoin: miter"/>
   </g>
   <g id="patch_63">
    <path d="M 260.941988 42.009348 
L 271.623448 42.009348 
L 271.623448 40.642577 
L 260.941988 40.642577 
z
" clip-path="url(#pc873c2335a)" style="fill: #fdbf6f; stroke: #000000; stroke-linejoin: miter"/>
   </g>
   <g id="patch_64">
    <path d="M 314.888758 24.565501 
L 325.570219 24.565501 
L 325.570219 23.200063 
L 314.888758 23.200063 
z
" clip-path="url(#pc873c2335a)" style="fill: #fdbf6f; stroke: #000000; stroke-linejoin: miter"/>
   </g>
   <g id="patch_65">
    <path d="M 368.835528 7.052281 
L 379.516989 7.052281 
L 379.516989 5.686844 
L 368.835528 5.686844 
z
" clip-path="url(#pc873c2335a)" style="fill: #fdbf6f; stroke: #000000; stroke-linejoin: miter"/>
   </g>
   <g id="patch_66">
    <path d="M 55.944261 107.084751 
L 66.625722 107.084751 
L 66.625722 106.797922 
L 55.944261 106.797922 
z
" clip-path="url(#pc873c2335a)" style="fill: #ff7f00; stroke: #000000; stroke-linejoin: miter"/>
   </g>
   <g id="patch_67">
    <path d="M 66.733615 103.595448 
L 77.415076 103.595448 
L 77.415076 103.322627 
L 66.733615 103.322627 
z
" clip-path="url(#pc873c2335a)" style="fill: #ff7f00; stroke: #000000; stroke-linejoin: miter"/>
   </g>
   <g id="patch_68">
    <path d="M 99.101677 93.104859 
L 109.783138 93.104859 
L 109.783138 92.832706 
L 99.101677 92.832706 
z
" clip-path="url(#pc873c2335a)" style="fill: #ff7f00; stroke: #000000; stroke-linejoin: miter"/>
   </g>
   <g id="patch_69">
    <path d="M 131.46974 82.615605 
L 142.1512 82.615605 
L 142.1512 82.352789 
L 131.46974 82.352789 
z
" clip-path="url(#pc873c2335a)" style="fill: #ff7f00; stroke: #000000; stroke-linejoin: miter"/>
   </g>
   <g id="patch_70">
    <path d="M 153.048448 75.632099 
L 163.729908 75.632099 
L 163.729908 75.360911 
L 153.048448 75.360911 
z
" clip-path="url(#pc873c2335a)" style="fill: #ff7f00; stroke: #000000; stroke-linejoin: miter"/>
   </g>
   <g id="patch_71">
    <path d="M 206.995218 58.158465 
L 217.676678 58.158465 
L 217.676678 57.885644 
L 206.995218 57.885644 
z
" clip-path="url(#pc873c2335a)" style="fill: #ff7f00; stroke: #000000; stroke-linejoin: miter"/>
   </g>
   <g id="patch_72">
    <path d="M 260.941988 40.642577 
L 271.623448 40.642577 
L 271.623448 40.369089 
L 260.941988 40.369089 
z
" clip-path="url(#pc873c2335a)" style="fill: #ff7f00; stroke: #000000; stroke-linejoin: miter"/>
   </g>
   <g id="patch_73">
    <path d="M 314.888758 23.200063 
L 325.570219 23.200063 
L 325.570219 22.926576 
L 314.888758 22.926576 
z
" clip-path="url(#pc873c2335a)" style="fill: #ff7f00; stroke: #000000; stroke-linejoin: miter"/>
   </g>
   <g id="patch_74">
    <path d="M 368.835528 5.686844 
L 379.516989 5.686844 
L 379.516989 5.411355 
L 368.835528 5.411355 
z
" clip-path="url(#pc873c2335a)" style="fill: #ff7f00; stroke: #000000; stroke-linejoin: miter"/>
   </g>
   <g id="patch_75">
    <path d="M 55.944261 106.797922 
L 66.625722 106.797922 
L 66.625722 106.779245 
L 55.944261 106.779245 
z
" clip-path="url(#pc873c2335a)" style="fill: #cab2d6; stroke: #000000; stroke-linejoin: miter"/>
   </g>
   <g id="patch_76">
    <path d="M 66.733615 103.322627 
L 77.415076 103.322627 
L 77.415076 103.305284 
L 66.733615 103.305284 
z
" clip-path="url(#pc873c2335a)" style="fill: #cab2d6; stroke: #000000; stroke-linejoin: miter"/>
   </g>
   <g id="patch_77">
    <path d="M 99.101677 92.832706 
L 109.783138 92.832706 
L 109.783138 92.815362 
L 99.101677 92.815362 
z
" clip-path="url(#pc873c2335a)" style="fill: #cab2d6; stroke: #000000; stroke-linejoin: miter"/>
   </g>
   <g id="patch_78">
    <path d="M 131.46974 82.352789 
L 142.1512 82.352789 
L 142.1512 82.333445 
L 131.46974 82.333445 
z
" clip-path="url(#pc873c2335a)" style="fill: #cab2d6; stroke: #000000; stroke-linejoin: miter"/>
   </g>
   <g id="patch_79">
    <path d="M 153.048448 75.360911 
L 163.729908 75.360911 
L 163.729908 75.340072 
L 153.048448 75.340072 
z
" clip-path="url(#pc873c2335a)" style="fill: #cab2d6; stroke: #000000; stroke-linejoin: miter"/>
   </g>
   <g id="patch_80">
    <path d="M 206.995218 57.885644 
L 217.676678 57.885644 
L 217.676678 57.862298 
L 206.995218 57.862298 
z
" clip-path="url(#pc873c2335a)" style="fill: #cab2d6; stroke: #000000; stroke-linejoin: miter"/>
   </g>
   <g id="patch_81">
    <path d="M 260.941988 40.369089 
L 271.623448 40.369089 
L 271.623448 40.345742 
L 260.941988 40.345742 
z
" clip-path="url(#pc873c2335a)" style="fill: #cab2d6; stroke: #000000; stroke-linejoin: miter"/>
   </g>
   <g id="patch_82">
    <path d="M 314.888758 22.926576 
L 325.570219 22.926576 
L 325.570219 22.901228 
L 314.888758 22.901228 
z
" clip-path="url(#pc873c2335a)" style="fill: #cab2d6; stroke: #000000; stroke-linejoin: miter"/>
   </g>
   <g id="patch_83">
    <path d="M 368.835528 5.411355 
L 379.516989 5.411355 
L 379.516989 5.373333 
L 368.835528 5.373333 
z
" clip-path="url(#pc873c2335a)" style="fill: #cab2d6; stroke: #000000; stroke-linejoin: miter"/>
   </g>
   <g id="line2d_16">
    <path d="M 61.284992 106.779245 
L 72.074346 103.305284 
L 104.442408 92.815362 
L 136.81047 82.333445 
L 158.389178 75.340072 
L 212.335948 57.862298 
L 266.282718 40.345742 
L 320.229488 22.901228 
L 374.176258 5.373333 
" clip-path="url(#pc873c2335a)" style="fill: none; stroke-dasharray: 7.4,3.2; stroke-dashoffset: 0; stroke: #000000; stroke-width: 2"/>
   </g>
   <g id="line2d_17">
    <path d="M 39.765625 110.813856 
L 395.695625 110.813856 
" clip-path="url(#pc873c2335a)" style="fill: none; stroke-dasharray: 7.4,3.2; stroke-dashoffset: 0; stroke: #ff0000; stroke-width: 2"/>
   </g>
   <g id="patch_84">
    <path d="M 39.765625 112.84 
L 39.765625 0 
" style="fill: none; stroke: #000000; stroke-width: 0.8; stroke-linejoin: miter; stroke-linecap: square"/>
   </g>
   <g id="patch_85">
    <path d="M 395.695625 112.84 
L 395.695625 0 
" style="fill: none; stroke: #000000; stroke-width: 0.8; stroke-linejoin: miter; stroke-linecap: square"/>
   </g>
   <g id="patch_86">
    <path d="M 39.765625 112.84 
L 395.695625 112.84 
" style="fill: none; stroke: #000000; stroke-width: 0.8; stroke-linejoin: miter; stroke-linecap: square"/>
   </g>
   <g id="patch_87">
    <path d="M 39.765625 0 
L 395.695625 0 
" style="fill: none; stroke: #000000; stroke-width: 0.8; stroke-linejoin: miter; stroke-linecap: square"/>
   </g>
  </g>
 </g>
 <defs>
  <clipPath id="pc873c2335a">
   <rect x="39.765625" y="0" width="355.93" height="112.84"/>
  </clipPath>
 </defs>
</svg>
