<?xml version="1.0" encoding="utf-8" standalone="no"?>
<!DOCTYPE svg PUBLIC "-//W3C//DTD SVG 1.1//EN"
  "http://www.w3.org/Graphics/SVG/1.1/DTD/svg11.dtd">
<svg xmlns:xlink="http://www.w3.org/1999/xlink" width="395.453438pt" height="142.989546pt" viewBox="0 0 395.453438 142.989546" xmlns="http://www.w3.org/2000/svg" version="1.1">
 <metadata>
  <rdf:RDF xmlns:dc="http://purl.org/dc/elements/1.1/" xmlns:cc="http://creativecommons.org/ns#" xmlns:rdf="http://www.w3.org/1999/02/22-rdf-syntax-ns#">
   <cc:Work>
    <dc:type rdf:resource="http://purl.org/dc/dcmitype/StillImage"/>
    <dc:date>2026-03-06T00:22:32.146374</dc:date>
    <dc:format>image/svg+xml</dc:format>
    <dc:creator>
     <cc:Agent>
      <dc:title>Matplotlib v3.10.3, https://matplotlib.org/</dc:title>
     </cc:Agent>
    </dc:creator>
   </cc:Work>
  </rdf:RDF>
 </metadata>
 <defs>
  <style type="text/css">*{stroke-linejoin: round; stroke-linecap: butt}</style>
 </defs>
 <g id="figure_1">
  <g id="patch_1">
   <path d="M 0 142.989546 
L 395.453438 142.989546 
L 395.453438 0 
L 0 0 
z
" style="fill: #ffffff"/>
  </g>
  <g id="axes_1">
   <g id="patch_2">
    <path d="M 45.55625 112.633296 
L 289.52625 112.633296 
L 289.52625 0.285126 
L 45.55625 0.285126 
z
" style="fill: #ffffff"/>
   </g>
   <g id="matplotlib.axis_1">
    <g id="xtick_1">
     <g id="line2d_1">
      <path d="M 56.645795 112.633296 
L 56.645795 0.285126 
" clip-path="url(#peed1cb055b)" style="fill: none; stroke-dasharray: 2.96,1.28; stroke-dashoffset: 0; stroke: #b0b0b0; stroke-opacity: 0.7; stroke-width: 0.8"/>
     </g>
     <g id="line2d_2">
      <defs>
       <path id="mccd257722e" d="M 0 0 
L 0 3.5 
" style="stroke: #000000; stroke-width: 0.8"/>
      </defs>
      <g>
       <use xlink:href="#mccd257722e" x="56.645795" y="112.633296" style="stroke: #000000; stroke-width: 0.8"/>
      </g>
     </g>
     <g id="text_1">
      <!-- Single -->
      <g transform="translate(41.27392 127.231734) scale(0.1 -0.1)">
       <defs>
        <path id="DejaVuSans-53" d="M 3425 4513 
L 3425 3897 
Q 3066 4069 2747 4153 
Q 2428 4238 2131 4238 
Q 1616 4238 1336 4038 
Q 1056 3838 1056 3469 
Q 1056 3159 1242 3001 
Q 1428 2844 1947 2747 
L 2328 2669 
Q 3034 2534 3370 2195 
Q 3706 1856 3706 1288 
Q 3706 609 3251 259 
Q 2797 -91 1919 -91 
Q 1588 -91 1214 -16 
Q 841 59 441 206 
L 441 856 
Q 825 641 1194 531 
Q 1563 422 1919 422 
Q 2459 422 2753 634 
Q 3047 847 3047 1241 
Q 3047 1584 2836 1778 
Q 2625 1972 2144 2069 
L 1759 2144 
Q 1053 2284 737 2584 
Q 422 2884 422 3419 
Q 422 4038 858 4394 
Q 1294 4750 2059 4750 
Q 2388 4750 2728 4690 
Q 3069 4631 3425 4513 
z
" transform="scale(0.015625)"/>
        <path id="DejaVuSans-69" d="M 603 3500 
L 1178 3500 
L 1178 0 
L 603 0 
L 603 3500 
z
M 603 4863 
L 1178 4863 
L 1178 4134 
L 603 4134 
L 603 4863 
z
" transform="scale(0.015625)"/>
        <path id="DejaVuSans-6e" d="M 3513 2113 
L 3513 0 
L 2938 0 
L 2938 2094 
Q 2938 2591 2744 2837 
Q 2550 3084 2163 3084 
Q 1697 3084 1428 2787 
Q 1159 2491 1159 1978 
L 1159 0 
L 581 0 
L 581 3500 
L 1159 3500 
L 1159 2956 
Q 1366 3272 1645 3428 
Q 1925 3584 2291 3584 
Q 2894 3584 3203 3211 
Q 3513 2838 3513 2113 
z
" transform="scale(0.015625)"/>
        <path id="DejaVuSans-67" d="M 2906 1791 
Q 2906 2416 2648 2759 
Q 2391 3103 1925 3103 
Q 1463 3103 1205 2759 
Q 947 2416 947 1791 
Q 947 1169 1205 825 
Q 1463 481 1925 481 
Q 2391 481 2648 825 
Q 2906 1169 2906 1791 
z
M 3481 434 
Q 3481 -459 3084 -895 
Q 2688 -1331 1869 -1331 
Q 1566 -1331 1297 -1286 
Q 1028 -1241 775 -1147 
L 775 -588 
Q 1028 -725 1275 -790 
Q 1522 -856 1778 -856 
Q 2344 -856 2625 -561 
Q 2906 -266 2906 331 
L 2906 616 
Q 2728 306 2450 153 
Q 2172 0 1784 0 
Q 1141 0 747 490 
Q 353 981 353 1791 
Q 353 2603 747 3093 
Q 1141 3584 1784 3584 
Q 2172 3584 2450 3431 
Q 2728 3278 2906 2969 
L 2906 3500 
L 3481 3500 
L 3481 434 
z
" transform="scale(0.015625)"/>
        <path id="DejaVuSans-6c" d="M 603 4863 
L 1178 4863 
L 1178 0 
L 603 0 
L 603 4863 
z
" transform="scale(0.015625)"/>
        <path id="DejaVuSans-65" d="M 3597 1894 
L 3597 1613 
L 953 1613 
Q 991 1019 1311 708 
Q 1631 397 2203 397 
Q 2534 397 2845 478 
Q 3156 559 3463 722 
L 3463 178 
Q 3153 47 2828 -22 
Q 2503 -91 2169 -91 
Q 1331 -91 842 396 
Q 353 884 353 1716 
Q 353 2575 817 3079 
Q 1281 3584 2069 3584 
Q 2775 3584 3186 3129 
Q 3597 2675 3597 1894 
z
M 3022 2063 
Q 3016 2534 2758 2815 
Q 2500 3097 2075 3097 
Q 1594 3097 1305 2825 
Q 1016 2553 972 2059 
L 3022 2063 
z
" transform="scale(0.015625)"/>
       </defs>
       <use xlink:href="#DejaVuSans-53"/>
       <use xlink:href="#DejaVuSans-69" transform="translate(63.476562 0)"/>
       <use xlink:href="#DejaVuSans-6e" transform="translate(91.259766 0)"/>
       <use xlink:href="#DejaVuSans-67" transform="translate(154.638672 0)"/>
       <use xlink:href="#DejaVuSans-6c" transform="translate(218.115234 0)"/>
       <use xlink:href="#DejaVuSans-65" transform="translate(245.898438 0)"/>
      </g>
     </g>
    </g>
    <g id="xtick_2">
     <g id="line2d_3">
      <path d="M 85.661374 112.633296 
L 85.661374 0.285126 
" clip-path="url(#peed1cb055b)" style="fill: none; stroke-dasharray: 2.96,1.28; stroke-dashoffset: 0; stroke: #b0b0b0; stroke-opacity: 0.7; stroke-width: 0.8"/>
     </g>
     <g id="line2d_4">
      <g>
       <use xlink:href="#mccd257722e" x="85.661374" y="112.633296" style="stroke: #000000; stroke-width: 0.8"/>
      </g>
     </g>
     <g id="text_2">
      <!-- 1 -->
      <g transform="translate(82.480124 127.231734) scale(0.1 -0.1)">
       <defs>
        <path id="DejaVuSans-31" d="M 794 531 
L 1825 531 
L 1825 4091 
L 703 3866 
L 703 4441 
L 1819 4666 
L 2450 4666 
L 2450 531 
L 3481 531 
L 3481 0 
L 794 0 
L 794 531 
z
" transform="scale(0.015625)"/>
       </defs>
       <use xlink:href="#DejaVuSans-31"/>
      </g>
     </g>
    </g>
    <g id="xtick_3">
     <g id="line2d_5">
      <path d="M 114.676952 112.633296 
L 114.676952 0.285126 
" clip-path="url(#peed1cb055b)" style="fill: none; stroke-dasharray: 2.96,1.28; stroke-dashoffset: 0; stroke: #b0b0b0; stroke-opacity: 0.7; stroke-width: 0.8"/>
     </g>
     <g id="line2d_6">
      <g>
       <use xlink:href="#mccd257722e" x="114.676952" y="112.633296" style="stroke: #000000; stroke-width: 0.8"/>
      </g>
     </g>
     <g id="text_3">
      <!-- 2 -->
      <g transform="translate(111.495702 127.231734) scale(0.1 -0.1)">
       <defs>
        <path id="DejaVuSans-32" d="M 1228 531 
L 3431 531 
L 3431 0 
L 469 0 
L 469 531 
Q 828 903 1448 1529 
Q 2069 2156 2228 2338 
Q 2531 2678 2651 2914 
Q 2772 3150 2772 3378 
Q 2772 3750 2511 3984 
Q 2250 4219 1831 4219 
Q 1534 4219 1204 4116 
Q 875 4013 500 3803 
L 500 4441 
Q 881 4594 1212 4672 
Q 1544 4750 1819 4750 
Q 2544 4750 2975 4387 
Q 3406 4025 3406 3419 
Q 3406 3131 3298 2873 
Q 3191 2616 2906 2266 
Q 2828 2175 2409 1742 
Q 1991 1309 1228 531 
z
" transform="scale(0.015625)"/>
       </defs>
       <use xlink:href="#DejaVuSans-32"/>
      </g>
     </g>
    </g>
    <g id="xtick_4">
     <g id="line2d_7">
      <path d="M 153.033461 112.633296 
L 153.033461 0.285126 
" clip-path="url(#peed1cb055b)" style="fill: none; stroke-dasharray: 2.96,1.28; stroke-dashoffset: 0; stroke: #b0b0b0; stroke-opacity: 0.7; stroke-width: 0.8"/>
     </g>
     <g id="line2d_8">
      <g>
       <use xlink:href="#mccd257722e" x="153.033461" y="112.633296" style="stroke: #000000; stroke-width: 0.8"/>
      </g>
     </g>
     <g id="text_4">
      <!-- 5 -->
      <g transform="translate(149.852211 127.231734) scale(0.1 -0.1)">
       <defs>
        <path id="DejaVuSans-35" d="M 691 4666 
L 3169 4666 
L 3169 4134 
L 1269 4134 
L 1269 2991 
Q 1406 3038 1543 3061 
Q 1681 3084 1819 3084 
Q 2600 3084 3056 2656 
Q 3513 2228 3513 1497 
Q 3513 744 3044 326 
Q 2575 -91 1722 -91 
Q 1428 -91 1123 -41 
Q 819 9 494 109 
L 494 744 
Q 775 591 1075 516 
Q 1375 441 1709 441 
Q 2250 441 2565 725 
Q 2881 1009 2881 1497 
Q 2881 1984 2565 2268 
Q 2250 2553 1709 2553 
Q 1456 2553 1204 2497 
Q 953 2441 691 2322 
L 691 4666 
z
" transform="scale(0.015625)"/>
       </defs>
       <use xlink:href="#DejaVuSans-35"/>
      </g>
     </g>
    </g>
    <g id="xtick_5">
     <g id="line2d_9">
      <path d="M 182.049039 112.633296 
L 182.049039 0.285126 
" clip-path="url(#peed1cb055b)" style="fill: none; stroke-dasharray: 2.96,1.28; stroke-dashoffset: 0; stroke: #b0b0b0; stroke-opacity: 0.7; stroke-width: 0.8"/>
     </g>
     <g id="line2d_10">
      <g>
       <use xlink:href="#mccd257722e" x="182.049039" y="112.633296" style="stroke: #000000; stroke-width: 0.8"/>
      </g>
     </g>
     <g id="text_5">
      <!-- 10 -->
      <g transform="translate(175.686539 127.231734) scale(0.1 -0.1)">
       <defs>
        <path id="DejaVuSans-30" d="M 2034 4250 
Q 1547 4250 1301 3770 
Q 1056 3291 1056 2328 
Q 1056 1369 1301 889 
Q 1547 409 2034 409 
Q 2525 409 2770 889 
Q 3016 1369 3016 2328 
Q 3016 3291 2770 3770 
Q 2525 4250 2034 4250 
z
M 2034 4750 
Q 2819 4750 3233 4129 
Q 3647 3509 3647 2328 
Q 3647 1150 3233 529 
Q 2819 -91 2034 -91 
Q 1250 -91 836 529 
Q 422 1150 422 2328 
Q 422 3509 836 4129 
Q 1250 4750 2034 4750 
z
" transform="scale(0.015625)"/>
       </defs>
       <use xlink:href="#DejaVuSans-31"/>
       <use xlink:href="#DejaVuSans-30" transform="translate(63.623047 0)"/>
      </g>
     </g>
    </g>
    <g id="xtick_6">
     <g id="line2d_11">
      <path d="M 211.064618 112.633296 
L 211.064618 0.285126 
" clip-path="url(#peed1cb055b)" style="fill: none; stroke-dasharray: 2.96,1.28; stroke-dashoffset: 0; stroke: #b0b0b0; stroke-opacity: 0.7; stroke-width: 0.8"/>
     </g>
     <g id="line2d_12">
      <g>
       <use xlink:href="#mccd257722e" x="211.064618" y="112.633296" style="stroke: #000000; stroke-width: 0.8"/>
      </g>
     </g>
     <g id="text_6">
      <!-- 20 -->
      <g transform="translate(204.702118 127.231734) scale(0.1 -0.1)">
       <use xlink:href="#DejaVuSans-32"/>
       <use xlink:href="#DejaVuSans-30" transform="translate(63.623047 0)"/>
      </g>
     </g>
    </g>
    <g id="xtick_7">
     <g id="line2d_13">
      <path d="M 228.037643 112.633296 
L 228.037643 0.285126 
" clip-path="url(#peed1cb055b)" style="fill: none; stroke-dasharray: 2.96,1.28; stroke-dashoffset: 0; stroke: #b0b0b0; stroke-opacity: 0.7; stroke-width: 0.8"/>
     </g>
     <g id="line2d_14">
      <g>
       <use xlink:href="#mccd257722e" x="228.037643" y="112.633296" style="stroke: #000000; stroke-width: 0.8"/>
      </g>
     </g>
     <g id="text_7">
      <!-- 30 -->
      <g transform="translate(221.675143 127.231734) scale(0.1 -0.1)">
       <defs>
        <path id="DejaVuSans-33" d="M 2597 2516 
Q 3050 2419 3304 2112 
Q 3559 1806 3559 1356 
Q 3559 666 3084 287 
Q 2609 -91 1734 -91 
Q 1441 -91 1130 -33 
Q 819 25 488 141 
L 488 750 
Q 750 597 1062 519 
Q 1375 441 1716 441 
Q 2309 441 2620 675 
Q 2931 909 2931 1356 
Q 2931 1769 2642 2001 
Q 2353 2234 1838 2234 
L 1294 2234 
L 1294 2753 
L 1863 2753 
Q 2328 2753 2575 2939 
Q 2822 3125 2822 3475 
Q 2822 3834 2567 4026 
Q 2313 4219 1838 4219 
Q 1578 4219 1281 4162 
Q 984 4106 628 3988 
L 628 4550 
Q 988 4650 1302 4700 
Q 1616 4750 1894 4750 
Q 2613 4750 3031 4423 
Q 3450 4097 3450 3541 
Q 3450 3153 3228 2886 
Q 3006 2619 2597 2516 
z
" transform="scale(0.015625)"/>
       </defs>
       <use xlink:href="#DejaVuSans-33"/>
       <use xlink:href="#DejaVuSans-30" transform="translate(63.623047 0)"/>
      </g>
     </g>
    </g>
    <g id="xtick_8">
     <g id="line2d_15">
      <path d="M 249.421126 112.633296 
L 249.421126 0.285126 
" clip-path="url(#peed1cb055b)" style="fill: none; stroke-dasharray: 2.96,1.28; stroke-dashoffset: 0; stroke: #b0b0b0; stroke-opacity: 0.7; stroke-width: 0.8"/>
     </g>
     <g id="line2d_16">
      <g>
       <use xlink:href="#mccd257722e" x="249.421126" y="112.633296" style="stroke: #000000; stroke-width: 0.8"/>
      </g>
     </g>
     <g id="text_8">
      <!-- 50 -->
      <g transform="translate(243.058626 127.231734) scale(0.1 -0.1)">
       <use xlink:href="#DejaVuSans-35"/>
       <use xlink:href="#DejaVuSans-30" transform="translate(63.623047 0)"/>
      </g>
     </g>
    </g>
    <g id="xtick_9">
     <g id="line2d_17">
      <path d="M 278.436705 112.633296 
L 278.436705 0.285126 
" clip-path="url(#peed1cb055b)" style="fill: none; stroke-dasharray: 2.96,1.28; stroke-dashoffset: 0; stroke: #b0b0b0; stroke-opacity: 0.7; stroke-width: 0.8"/>
     </g>
     <g id="line2d_18">
      <g>
       <use xlink:href="#mccd257722e" x="278.436705" y="112.633296" style="stroke: #000000; stroke-width: 0.8"/>
      </g>
     </g>
     <g id="text_9">
      <!-- 100 -->
      <g transform="translate(268.892955 127.231734) scale(0.1 -0.1)">
       <use xlink:href="#DejaVuSans-31"/>
       <use xlink:href="#DejaVuSans-30" transform="translate(63.623047 0)"/>
       <use xlink:href="#DejaVuSans-30" transform="translate(127.246094 0)"/>
      </g>
     </g>
    </g>
    <g id="xtick_10">
     <g id="line2d_19">
      <defs>
       <path id="ma8e29600f1" d="M 0 0 
L 0 2 
" style="stroke: #000000; stroke-width: 0.6"/>
      </defs>
      <g>
       <use xlink:href="#ma8e29600f1" x="47.304866" y="112.633296" style="stroke: #000000; stroke-width: 0.6"/>
      </g>
     </g>
    </g>
    <g id="xtick_11">
     <g id="line2d_20">
      <g>
       <use xlink:href="#ma8e29600f1" x="64.277891" y="112.633296" style="stroke: #000000; stroke-width: 0.6"/>
      </g>
     </g>
    </g>
    <g id="xtick_12">
     <g id="line2d_21">
      <g>
       <use xlink:href="#ma8e29600f1" x="70.730736" y="112.633296" style="stroke: #000000; stroke-width: 0.6"/>
      </g>
     </g>
    </g>
    <g id="xtick_13">
     <g id="line2d_22">
      <g>
       <use xlink:href="#ma8e29600f1" x="76.320444" y="112.633296" style="stroke: #000000; stroke-width: 0.6"/>
      </g>
     </g>
    </g>
    <g id="xtick_14">
     <g id="line2d_23">
      <g>
       <use xlink:href="#ma8e29600f1" x="81.250916" y="112.633296" style="stroke: #000000; stroke-width: 0.6"/>
      </g>
     </g>
    </g>
    <g id="xtick_15">
     <g id="line2d_24">
      <g>
       <use xlink:href="#ma8e29600f1" x="131.649978" y="112.633296" style="stroke: #000000; stroke-width: 0.6"/>
      </g>
     </g>
    </g>
    <g id="xtick_16">
     <g id="line2d_25">
      <g>
       <use xlink:href="#ma8e29600f1" x="143.692531" y="112.633296" style="stroke: #000000; stroke-width: 0.6"/>
      </g>
     </g>
    </g>
    <g id="xtick_17">
     <g id="line2d_26">
      <g>
       <use xlink:href="#ma8e29600f1" x="160.665556" y="112.633296" style="stroke: #000000; stroke-width: 0.6"/>
      </g>
     </g>
    </g>
    <g id="xtick_18">
     <g id="line2d_27">
      <g>
       <use xlink:href="#ma8e29600f1" x="167.118401" y="112.633296" style="stroke: #000000; stroke-width: 0.6"/>
      </g>
     </g>
    </g>
    <g id="xtick_19">
     <g id="line2d_28">
      <g>
       <use xlink:href="#ma8e29600f1" x="172.708109" y="112.633296" style="stroke: #000000; stroke-width: 0.6"/>
      </g>
     </g>
    </g>
    <g id="xtick_20">
     <g id="line2d_29">
      <g>
       <use xlink:href="#ma8e29600f1" x="177.638582" y="112.633296" style="stroke: #000000; stroke-width: 0.6"/>
      </g>
     </g>
    </g>
    <g id="xtick_21">
     <g id="line2d_30">
      <g>
       <use xlink:href="#ma8e29600f1" x="240.080196" y="112.633296" style="stroke: #000000; stroke-width: 0.6"/>
      </g>
     </g>
    </g>
    <g id="xtick_22">
     <g id="line2d_31">
      <g>
       <use xlink:href="#ma8e29600f1" x="257.053222" y="112.633296" style="stroke: #000000; stroke-width: 0.6"/>
      </g>
     </g>
    </g>
    <g id="xtick_23">
     <g id="line2d_32">
      <g>
       <use xlink:href="#ma8e29600f1" x="263.506066" y="112.633296" style="stroke: #000000; stroke-width: 0.6"/>
      </g>
     </g>
    </g>
    <g id="xtick_24">
     <g id="line2d_33">
      <g>
       <use xlink:href="#ma8e29600f1" x="269.095775" y="112.633296" style="stroke: #000000; stroke-width: 0.6"/>
      </g>
     </g>
    </g>
    <g id="xtick_25">
     <g id="line2d_34">
      <g>
       <use xlink:href="#ma8e29600f1" x="274.026247" y="112.633296" style="stroke: #000000; stroke-width: 0.6"/>
      </g>
     </g>
    </g>
    <g id="text_10">
     <!-- Queries per minute (QPM) -->
     <g transform="translate(102.360781 140.909859) scale(0.1 -0.1)">
      <defs>
       <path id="DejaVuSans-51" d="M 2522 4238 
Q 1834 4238 1429 3725 
Q 1025 3213 1025 2328 
Q 1025 1447 1429 934 
Q 1834 422 2522 422 
Q 3209 422 3611 934 
Q 4013 1447 4013 2328 
Q 4013 3213 3611 3725 
Q 3209 4238 2522 4238 
z
M 3406 84 
L 4238 -825 
L 3475 -825 
L 2784 -78 
Q 2681 -84 2626 -87 
Q 2572 -91 2522 -91 
Q 1538 -91 948 567 
Q 359 1225 359 2328 
Q 359 3434 948 4092 
Q 1538 4750 2522 4750 
Q 3503 4750 4090 4092 
Q 4678 3434 4678 2328 
Q 4678 1516 4351 937 
Q 4025 359 3406 84 
z
" transform="scale(0.015625)"/>
       <path id="DejaVuSans-75" d="M 544 1381 
L 544 3500 
L 1119 3500 
L 1119 1403 
Q 1119 906 1312 657 
Q 1506 409 1894 409 
Q 2359 409 2629 706 
Q 2900 1003 2900 1516 
L 2900 3500 
L 3475 3500 
L 3475 0 
L 2900 0 
L 2900 538 
Q 2691 219 2414 64 
Q 2138 -91 1772 -91 
Q 1169 -91 856 284 
Q 544 659 544 1381 
z
M 1991 3584 
L 1991 3584 
z
" transform="scale(0.015625)"/>
       <path id="DejaVuSans-72" d="M 2631 2963 
Q 2534 3019 2420 3045 
Q 2306 3072 2169 3072 
Q 1681 3072 1420 2755 
Q 1159 2438 1159 1844 
L 1159 0 
L 581 0 
L 581 3500 
L 1159 3500 
L 1159 2956 
Q 1341 3275 1631 3429 
Q 1922 3584 2338 3584 
Q 2397 3584 2469 3576 
Q 2541 3569 2628 3553 
L 2631 2963 
z
" transform="scale(0.015625)"/>
       <path id="DejaVuSans-73" d="M 2834 3397 
L 2834 2853 
Q 2591 2978 2328 3040 
Q 2066 3103 1784 3103 
Q 1356 3103 1142 2972 
Q 928 2841 928 2578 
Q 928 2378 1081 2264 
Q 1234 2150 1697 2047 
L 1894 2003 
Q 2506 1872 2764 1633 
Q 3022 1394 3022 966 
Q 3022 478 2636 193 
Q 2250 -91 1575 -91 
Q 1294 -91 989 -36 
Q 684 19 347 128 
L 347 722 
Q 666 556 975 473 
Q 1284 391 1588 391 
Q 1994 391 2212 530 
Q 2431 669 2431 922 
Q 2431 1156 2273 1281 
Q 2116 1406 1581 1522 
L 1381 1569 
Q 847 1681 609 1914 
Q 372 2147 372 2553 
Q 372 3047 722 3315 
Q 1072 3584 1716 3584 
Q 2034 3584 2315 3537 
Q 2597 3491 2834 3397 
z
" transform="scale(0.015625)"/>
       <path id="DejaVuSans-20" transform="scale(0.015625)"/>
       <path id="DejaVuSans-70" d="M 1159 525 
L 1159 -1331 
L 581 -1331 
L 581 3500 
L 1159 3500 
L 1159 2969 
Q 1341 3281 1617 3432 
Q 1894 3584 2278 3584 
Q 2916 3584 3314 3078 
Q 3713 2572 3713 1747 
Q 3713 922 3314 415 
Q 2916 -91 2278 -91 
Q 1894 -91 1617 61 
Q 1341 213 1159 525 
z
M 3116 1747 
Q 3116 2381 2855 2742 
Q 2594 3103 2138 3103 
Q 1681 3103 1420 2742 
Q 1159 2381 1159 1747 
Q 1159 1113 1420 752 
Q 1681 391 2138 391 
Q 2594 391 2855 752 
Q 3116 1113 3116 1747 
z
" transform="scale(0.015625)"/>
       <path id="DejaVuSans-6d" d="M 3328 2828 
Q 3544 3216 3844 3400 
Q 4144 3584 4550 3584 
Q 5097 3584 5394 3201 
Q 5691 2819 5691 2113 
L 5691 0 
L 5113 0 
L 5113 2094 
Q 5113 2597 4934 2840 
Q 4756 3084 4391 3084 
Q 3944 3084 3684 2787 
Q 3425 2491 3425 1978 
L 3425 0 
L 2847 0 
L 2847 2094 
Q 2847 2600 2669 2842 
Q 2491 3084 2119 3084 
Q 1678 3084 1418 2786 
Q 1159 2488 1159 1978 
L 1159 0 
L 581 0 
L 581 3500 
L 1159 3500 
L 1159 2956 
Q 1356 3278 1631 3431 
Q 1906 3584 2284 3584 
Q 2666 3584 2933 3390 
Q 3200 3197 3328 2828 
z
" transform="scale(0.015625)"/>
       <path id="DejaVuSans-74" d="M 1172 4494 
L 1172 3500 
L 2356 3500 
L 2356 3053 
L 1172 3053 
L 1172 1153 
Q 1172 725 1289 603 
Q 1406 481 1766 481 
L 2356 481 
L 2356 0 
L 1766 0 
Q 1100 0 847 248 
Q 594 497 594 1153 
L 594 3053 
L 172 3053 
L 172 3500 
L 594 3500 
L 594 4494 
L 1172 4494 
z
" transform="scale(0.015625)"/>
       <path id="DejaVuSans-28" d="M 1984 4856 
Q 1566 4138 1362 3434 
Q 1159 2731 1159 2009 
Q 1159 1288 1364 580 
Q 1569 -128 1984 -844 
L 1484 -844 
Q 1016 -109 783 600 
Q 550 1309 550 2009 
Q 550 2706 781 3412 
Q 1013 4119 1484 4856 
L 1984 4856 
z
" transform="scale(0.015625)"/>
       <path id="DejaVuSans-50" d="M 1259 4147 
L 1259 2394 
L 2053 2394 
Q 2494 2394 2734 2622 
Q 2975 2850 2975 3272 
Q 2975 3691 2734 3919 
Q 2494 4147 2053 4147 
L 1259 4147 
z
M 628 4666 
L 2053 4666 
Q 2838 4666 3239 4311 
Q 3641 3956 3641 3272 
Q 3641 2581 3239 2228 
Q 2838 1875 2053 1875 
L 1259 1875 
L 1259 0 
L 628 0 
L 628 4666 
z
" transform="scale(0.015625)"/>
       <path id="DejaVuSans-4d" d="M 628 4666 
L 1569 4666 
L 2759 1491 
L 3956 4666 
L 4897 4666 
L 4897 0 
L 4281 0 
L 4281 4097 
L 3078 897 
L 2444 897 
L 1241 4097 
L 1241 0 
L 628 0 
L 628 4666 
z
" transform="scale(0.015625)"/>
       <path id="DejaVuSans-29" d="M 513 4856 
L 1013 4856 
Q 1481 4119 1714 3412 
Q 1947 2706 1947 2009 
Q 1947 1309 1714 600 
Q 1481 -109 1013 -844 
L 513 -844 
Q 928 -128 1133 580 
Q 1338 1288 1338 2009 
Q 1338 2731 1133 3434 
Q 928 4138 513 4856 
z
" transform="scale(0.015625)"/>
      </defs>
      <use xlink:href="#DejaVuSans-51"/>
      <use xlink:href="#DejaVuSans-75" transform="translate(78.710938 0)"/>
      <use xlink:href="#DejaVuSans-65" transform="translate(142.089844 0)"/>
      <use xlink:href="#DejaVuSans-72" transform="translate(203.613281 0)"/>
      <use xlink:href="#DejaVuSans-69" transform="translate(244.726562 0)"/>
      <use xlink:href="#DejaVuSans-65" transform="translate(272.509766 0)"/>
      <use xlink:href="#DejaVuSans-73" transform="translate(334.033203 0)"/>
      <use xlink:href="#DejaVuSans-20" transform="translate(386.132812 0)"/>
      <use xlink:href="#DejaVuSans-70" transform="translate(417.919922 0)"/>
      <use xlink:href="#DejaVuSans-65" transform="translate(481.396484 0)"/>
      <use xlink:href="#DejaVuSans-72" transform="translate(542.919922 0)"/>
      <use xlink:href="#DejaVuSans-20" transform="translate(584.033203 0)"/>
      <use xlink:href="#DejaVuSans-6d" transform="translate(615.820312 0)"/>
      <use xlink:href="#DejaVuSans-69" transform="translate(713.232422 0)"/>
      <use xlink:href="#DejaVuSans-6e" transform="translate(741.015625 0)"/>
      <use xlink:href="#DejaVuSans-75" transform="translate(804.394531 0)"/>
      <use xlink:href="#DejaVuSans-74" transform="translate(867.773438 0)"/>
      <use xlink:href="#DejaVuSans-65" transform="translate(906.982422 0)"/>
      <use xlink:href="#DejaVuSans-20" transform="translate(968.505859 0)"/>
      <use xlink:href="#DejaVuSans-28" transform="translate(1000.292969 0)"/>
      <use xlink:href="#DejaVuSans-51" transform="translate(1039.306641 0)"/>
      <use xlink:href="#DejaVuSans-50" transform="translate(1118.017578 0)"/>
      <use xlink:href="#DejaVuSans-4d" transform="translate(1178.320312 0)"/>
      <use xlink:href="#DejaVuSans-29" transform="translate(1264.599609 0)"/>
     </g>
    </g>
   </g>
   <g id="matplotlib.axis_2">
    <g id="ytick_1">
     <g id="line2d_35">
      <path d="M 45.55625 112.633296 
L 289.52625 112.633296 
" clip-path="url(#peed1cb055b)" style="fill: none; stroke-dasharray: 2.96,1.28; stroke-dashoffset: 0; stroke: #b0b0b0; stroke-opacity: 0.7; stroke-width: 0.8"/>
     </g>
     <g id="line2d_36">
      <defs>
       <path id="m4ea82a5157" d="M 0 0 
L -3.5 0 
" style="stroke: #000000; stroke-width: 0.8"/>
      </defs>
      <g>
       <use xlink:href="#m4ea82a5157" x="45.55625" y="112.633296" style="stroke: #000000; stroke-width: 0.8"/>
      </g>
     </g>
     <g id="text_11">
      <!-- 1 -->
      <g transform="translate(32.19375 116.432515) scale(0.1 -0.1)">
       <use xlink:href="#DejaVuSans-31"/>
      </g>
     </g>
    </g>
    <g id="ytick_2">
     <g id="line2d_37">
      <path d="M 45.55625 90.866481 
L 289.52625 90.866481 
" clip-path="url(#peed1cb055b)" style="fill: none; stroke-dasharray: 2.96,1.28; stroke-dashoffset: 0; stroke: #b0b0b0; stroke-opacity: 0.7; stroke-width: 0.8"/>
     </g>
     <g id="line2d_38">
      <g>
       <use xlink:href="#m4ea82a5157" x="45.55625" y="90.866481" style="stroke: #000000; stroke-width: 0.8"/>
      </g>
     </g>
     <g id="text_12">
      <!-- 10 -->
      <g transform="translate(25.83125 94.6657) scale(0.1 -0.1)">
       <use xlink:href="#DejaVuSans-31"/>
       <use xlink:href="#DejaVuSans-30" transform="translate(63.623047 0)"/>
      </g>
     </g>
    </g>
    <g id="ytick_3">
     <g id="line2d_39">
      <path d="M 45.55625 69.099665 
L 289.52625 69.099665 
" clip-path="url(#peed1cb055b)" style="fill: none; stroke-dasharray: 2.96,1.28; stroke-dashoffset: 0; stroke: #b0b0b0; stroke-opacity: 0.7; stroke-width: 0.8"/>
     </g>
     <g id="line2d_40">
      <g>
       <use xlink:href="#m4ea82a5157" x="45.55625" y="69.099665" style="stroke: #000000; stroke-width: 0.8"/>
      </g>
     </g>
     <g id="text_13">
      <!-- 100 -->
      <g transform="translate(19.46875 72.898884) scale(0.1 -0.1)">
       <use xlink:href="#DejaVuSans-31"/>
       <use xlink:href="#DejaVuSans-30" transform="translate(63.623047 0)"/>
       <use xlink:href="#DejaVuSans-30" transform="translate(127.246094 0)"/>
      </g>
     </g>
    </g>
    <g id="ytick_4">
     <g id="line2d_41">
      <path d="M 45.55625 47.33285 
L 289.52625 47.33285 
" clip-path="url(#peed1cb055b)" style="fill: none; stroke-dasharray: 2.96,1.28; stroke-dashoffset: 0; stroke: #b0b0b0; stroke-opacity: 0.7; stroke-width: 0.8"/>
     </g>
     <g id="line2d_42">
      <g>
       <use xlink:href="#m4ea82a5157" x="45.55625" y="47.33285" style="stroke: #000000; stroke-width: 0.8"/>
      </g>
     </g>
     <g id="text_14">
      <!-- 1k -->
      <g transform="translate(26.403125 51.132069) scale(0.1 -0.1)">
       <defs>
        <path id="DejaVuSans-6b" d="M 581 4863 
L 1159 4863 
L 1159 1991 
L 2875 3500 
L 3609 3500 
L 1753 1863 
L 3688 0 
L 2938 0 
L 1159 1709 
L 1159 0 
L 581 0 
L 581 4863 
z
" transform="scale(0.015625)"/>
       </defs>
       <use xlink:href="#DejaVuSans-31"/>
       <use xlink:href="#DejaVuSans-6b" transform="translate(63.623047 0)"/>
      </g>
     </g>
    </g>
    <g id="ytick_5">
     <g id="line2d_43">
      <path d="M 45.55625 25.566034 
L 289.52625 25.566034 
" clip-path="url(#peed1cb055b)" style="fill: none; stroke-dasharray: 2.96,1.28; stroke-dashoffset: 0; stroke: #b0b0b0; stroke-opacity: 0.7; stroke-width: 0.8"/>
     </g>
     <g id="line2d_44">
      <g>
       <use xlink:href="#m4ea82a5157" x="45.55625" y="25.566034" style="stroke: #000000; stroke-width: 0.8"/>
      </g>
     </g>
     <g id="text_15">
      <!-- 10k -->
      <g transform="translate(20.040625 29.365253) scale(0.1 -0.1)">
       <use xlink:href="#DejaVuSans-31"/>
       <use xlink:href="#DejaVuSans-30" transform="translate(63.623047 0)"/>
       <use xlink:href="#DejaVuSans-6b" transform="translate(127.246094 0)"/>
      </g>
     </g>
    </g>
    <g id="ytick_6">
     <g id="line2d_45">
      <path d="M 45.55625 3.799219 
L 289.52625 3.799219 
" clip-path="url(#peed1cb055b)" style="fill: none; stroke-dasharray: 2.96,1.28; stroke-dashoffset: 0; stroke: #b0b0b0; stroke-opacity: 0.7; stroke-width: 0.8"/>
     </g>
     <g id="line2d_46">
      <g>
       <use xlink:href="#m4ea82a5157" x="45.55625" y="3.799219" style="stroke: #000000; stroke-width: 0.8"/>
      </g>
     </g>
     <g id="text_16">
      <!-- 100k -->
      <g transform="translate(13.678125 7.598437) scale(0.1 -0.1)">
       <use xlink:href="#DejaVuSans-31"/>
       <use xlink:href="#DejaVuSans-30" transform="translate(63.623047 0)"/>
       <use xlink:href="#DejaVuSans-30" transform="translate(127.246094 0)"/>
       <use xlink:href="#DejaVuSans-6b" transform="translate(190.869141 0)"/>
      </g>
     </g>
    </g>
    <g id="text_17">
     <!-- Cost ($/hour) -->
     <g transform="translate(7.598438 89.38343) rotate(-90) scale(0.1 -0.1)">
      <defs>
       <path id="DejaVuSans-43" d="M 4122 4306 
L 4122 3641 
Q 3803 3938 3442 4084 
Q 3081 4231 2675 4231 
Q 1875 4231 1450 3742 
Q 1025 3253 1025 2328 
Q 1025 1406 1450 917 
Q 1875 428 2675 428 
Q 3081 428 3442 575 
Q 3803 722 4122 1019 
L 4122 359 
Q 3791 134 3420 21 
Q 3050 -91 2638 -91 
Q 1578 -91 968 557 
Q 359 1206 359 2328 
Q 359 3453 968 4101 
Q 1578 4750 2638 4750 
Q 3056 4750 3426 4639 
Q 3797 4528 4122 4306 
z
" transform="scale(0.015625)"/>
       <path id="DejaVuSans-6f" d="M 1959 3097 
Q 1497 3097 1228 2736 
Q 959 2375 959 1747 
Q 959 1119 1226 758 
Q 1494 397 1959 397 
Q 2419 397 2687 759 
Q 2956 1122 2956 1747 
Q 2956 2369 2687 2733 
Q 2419 3097 1959 3097 
z
M 1959 3584 
Q 2709 3584 3137 3096 
Q 3566 2609 3566 1747 
Q 3566 888 3137 398 
Q 2709 -91 1959 -91 
Q 1206 -91 779 398 
Q 353 888 353 1747 
Q 353 2609 779 3096 
Q 1206 3584 1959 3584 
z
" transform="scale(0.015625)"/>
       <path id="DejaVuSans-24" d="M 2163 -941 
L 1850 -941 
L 1847 0 
Q 1519 6 1191 76 
Q 863 147 531 288 
L 531 850 
Q 850 650 1176 548 
Q 1503 447 1850 444 
L 1850 1869 
Q 1159 1981 845 2250 
Q 531 2519 531 2988 
Q 531 3497 872 3790 
Q 1213 4084 1850 4128 
L 1850 4863 
L 2163 4863 
L 2163 4138 
Q 2453 4125 2725 4076 
Q 2997 4028 3256 3944 
L 3256 3397 
Q 2997 3528 2723 3600 
Q 2450 3672 2163 3684 
L 2163 2350 
Q 2872 2241 3206 1959 
Q 3541 1678 3541 1191 
Q 3541 663 3186 358 
Q 2831 53 2163 6 
L 2163 -941 
z
M 1850 2406 
L 1850 3688 
Q 1488 3647 1297 3481 
Q 1106 3316 1106 3041 
Q 1106 2772 1282 2622 
Q 1459 2472 1850 2406 
z
M 2163 1806 
L 2163 453 
Q 2559 506 2761 678 
Q 2963 850 2963 1131 
Q 2963 1406 2770 1568 
Q 2578 1731 2163 1806 
z
" transform="scale(0.015625)"/>
       <path id="DejaVuSans-2f" d="M 1625 4666 
L 2156 4666 
L 531 -594 
L 0 -594 
L 1625 4666 
z
" transform="scale(0.015625)"/>
       <path id="DejaVuSans-68" d="M 3513 2113 
L 3513 0 
L 2938 0 
L 2938 2094 
Q 2938 2591 2744 2837 
Q 2550 3084 2163 3084 
Q 1697 3084 1428 2787 
Q 1159 2491 1159 1978 
L 1159 0 
L 581 0 
L 581 4863 
L 1159 4863 
L 1159 2956 
Q 1366 3272 1645 3428 
Q 1925 3584 2291 3584 
Q 2894 3584 3203 3211 
Q 3513 2838 3513 2113 
z
" transform="scale(0.015625)"/>
      </defs>
      <use xlink:href="#DejaVuSans-43"/>
      <use xlink:href="#DejaVuSans-6f" transform="translate(69.824219 0)"/>
      <use xlink:href="#DejaVuSans-73" transform="translate(131.005859 0)"/>
      <use xlink:href="#DejaVuSans-74" transform="translate(183.105469 0)"/>
      <use xlink:href="#DejaVuSans-20" transform="translate(222.314453 0)"/>
      <use xlink:href="#DejaVuSans-28" transform="translate(254.101562 0)"/>
      <use xlink:href="#DejaVuSans-24" transform="translate(293.115234 0)"/>
      <use xlink:href="#DejaVuSans-2f" transform="translate(356.738281 0)"/>
      <use xlink:href="#DejaVuSans-68" transform="translate(390.429688 0)"/>
      <use xlink:href="#DejaVuSans-6f" transform="translate(453.808594 0)"/>
      <use xlink:href="#DejaVuSans-75" transform="translate(514.990234 0)"/>
      <use xlink:href="#DejaVuSans-72" transform="translate(578.369141 0)"/>
      <use xlink:href="#DejaVuSans-29" transform="translate(619.482422 0)"/>
     </g>
    </g>
   </g>
   <g id="line2d_47">
    <path d="M 56.645795 111.993705 
L 85.661374 111.993705 
L 114.676952 111.993705 
L 153.033461 101.608295 
L 182.049039 96.779354 
L 211.064618 91.222884 
L 228.037643 87.746706 
L 249.421126 82.773438 
L 278.436705 76.438299 
" clip-path="url(#peed1cb055b)" style="fill: none; stroke: #1f77b4; stroke-width: 1.5; stroke-linecap: square"/>
    <defs>
     <path id="m1dab990004" d="M 0 3 
C 0.795609 3 1.55874 2.683901 2.12132 2.12132 
C 2.683901 1.55874 3 0.795609 3 0 
C 3 -0.795609 2.683901 -1.55874 2.12132 -2.12132 
C 1.55874 -2.683901 0.795609 -3 0 -3 
C -0.795609 -3 -1.55874 -2.683901 -2.12132 -2.12132 
C -2.683901 -1.55874 -3 -0.795609 -3 0 
C -3 0.795609 -2.683901 1.55874 -2.12132 2.12132 
C -1.55874 2.683901 -0.795609 3 0 3 
z
" style="stroke: #1f77b4"/>
    </defs>
    <g clip-path="url(#peed1cb055b)">
     <use xlink:href="#m1dab990004" x="56.645795" y="111.993705" style="fill: #1f77b4; stroke: #1f77b4"/>
     <use xlink:href="#m1dab990004" x="85.661374" y="111.993705" style="fill: #1f77b4; stroke: #1f77b4"/>
     <use xlink:href="#m1dab990004" x="114.676952" y="111.993705" style="fill: #1f77b4; stroke: #1f77b4"/>
     <use xlink:href="#m1dab990004" x="153.033461" y="101.608295" style="fill: #1f77b4; stroke: #1f77b4"/>
     <use xlink:href="#m1dab990004" x="182.049039" y="96.779354" style="fill: #1f77b4; stroke: #1f77b4"/>
     <use xlink:href="#m1dab990004" x="211.064618" y="91.222884" style="fill: #1f77b4; stroke: #1f77b4"/>
     <use xlink:href="#m1dab990004" x="228.037643" y="87.746706" style="fill: #1f77b4; stroke: #1f77b4"/>
     <use xlink:href="#m1dab990004" x="249.421126" y="82.773438" style="fill: #1f77b4; stroke: #1f77b4"/>
     <use xlink:href="#m1dab990004" x="278.436705" y="76.438299" style="fill: #1f77b4; stroke: #1f77b4"/>
    </g>
   </g>
   <g id="line2d_48">
    <path d="M 56.645795 92.336312 
L 85.661374 92.336312 
L 114.676952 92.336312 
L 153.033461 92.336312 
L 182.049039 87.746706 
L 211.064618 81.194241 
L 228.037643 77.361295 
L 249.421126 72.532355 
L 278.436705 65.97989 
" clip-path="url(#peed1cb055b)" style="fill: none; stroke: #ff7f0e; stroke-width: 1.5; stroke-linecap: square"/>
    <defs>
     <path id="m17a902b544" d="M 0 3 
C 0.795609 3 1.55874 2.683901 2.12132 2.12132 
C 2.683901 1.55874 3 0.795609 3 0 
C 3 -0.795609 2.683901 -1.55874 2.12132 -2.12132 
C 1.55874 -2.683901 0.795609 -3 0 -3 
C -0.795609 -3 -1.55874 -2.683901 -2.12132 -2.12132 
C -2.683901 -1.55874 -3 -0.795609 -3 0 
C -3 0.795609 -2.683901 1.55874 -2.12132 2.12132 
C -1.55874 2.683901 -0.795609 3 0 3 
z
" style="stroke: #ff7f0e"/>
    </defs>
    <g clip-path="url(#peed1cb055b)">
     <use xlink:href="#m17a902b544" x="56.645795" y="92.336312" style="fill: #ff7f0e; stroke: #ff7f0e"/>
     <use xlink:href="#m17a902b544" x="85.661374" y="92.336312" style="fill: #ff7f0e; stroke: #ff7f0e"/>
     <use xlink:href="#m17a902b544" x="114.676952" y="92.336312" style="fill: #ff7f0e; stroke: #ff7f0e"/>
     <use xlink:href="#m17a902b544" x="153.033461" y="92.336312" style="fill: #ff7f0e; stroke: #ff7f0e"/>
     <use xlink:href="#m17a902b544" x="182.049039" y="87.746706" style="fill: #ff7f0e; stroke: #ff7f0e"/>
     <use xlink:href="#m17a902b544" x="211.064618" y="81.194241" style="fill: #ff7f0e; stroke: #ff7f0e"/>
     <use xlink:href="#m17a902b544" x="228.037643" y="77.361295" style="fill: #ff7f0e; stroke: #ff7f0e"/>
     <use xlink:href="#m17a902b544" x="249.421126" y="72.532355" style="fill: #ff7f0e; stroke: #ff7f0e"/>
     <use xlink:href="#m17a902b544" x="278.436705" y="65.97989" style="fill: #ff7f0e; stroke: #ff7f0e"/>
    </g>
   </g>
   <g id="line2d_49">
    <path d="M 56.645795 85.783848 
L 85.661374 85.783848 
L 114.676952 85.783848 
L 153.033461 85.783848 
L 182.049039 85.783848 
L 211.064618 85.783848 
L 228.037643 85.783848 
L 249.421126 85.783848 
L 278.436705 81.194241 
" clip-path="url(#peed1cb055b)" style="fill: none; stroke: #2ca02c; stroke-width: 1.5; stroke-linecap: square"/>
    <defs>
     <path id="m203f651d03" d="M 0 3 
C 0.795609 3 1.55874 2.683901 2.12132 2.12132 
C 2.683901 1.55874 3 0.795609 3 0 
C 3 -0.795609 2.683901 -1.55874 2.12132 -2.12132 
C 1.55874 -2.683901 0.795609 -3 0 -3 
C -0.795609 -3 -1.55874 -2.683901 -2.12132 -2.12132 
C -2.683901 -1.55874 -3 -0.795609 -3 0 
C -3 0.795609 -2.683901 1.55874 -2.12132 2.12132 
C -1.55874 2.683901 -0.795609 3 0 3 
z
" style="stroke: #2ca02c"/>
    </defs>
    <g clip-path="url(#peed1cb055b)">
     <use xlink:href="#m203f651d03" x="56.645795" y="85.783848" style="fill: #2ca02c; stroke: #2ca02c"/>
     <use xlink:href="#m203f651d03" x="85.661374" y="85.783848" style="fill: #2ca02c; stroke: #2ca02c"/>
     <use xlink:href="#m203f651d03" x="114.676952" y="85.783848" style="fill: #2ca02c; stroke: #2ca02c"/>
     <use xlink:href="#m203f651d03" x="153.033461" y="85.783848" style="fill: #2ca02c; stroke: #2ca02c"/>
     <use xlink:href="#m203f651d03" x="182.049039" y="85.783848" style="fill: #2ca02c; stroke: #2ca02c"/>
     <use xlink:href="#m203f651d03" x="211.064618" y="85.783848" style="fill: #2ca02c; stroke: #2ca02c"/>
     <use xlink:href="#m203f651d03" x="228.037643" y="85.783848" style="fill: #2ca02c; stroke: #2ca02c"/>
     <use xlink:href="#m203f651d03" x="249.421126" y="85.783848" style="fill: #2ca02c; stroke: #2ca02c"/>
     <use xlink:href="#m203f651d03" x="278.436705" y="81.194241" style="fill: #2ca02c; stroke: #2ca02c"/>
    </g>
   </g>
   <g id="line2d_50">
    <path d="M 56.645795 69.029031 
L 85.661374 69.029031 
L 114.676952 69.029031 
L 153.033461 61.405247 
L 182.049039 54.937565 
L 211.064618 48.427779 
L 228.037643 44.580586 
L 249.421126 39.774451 
L 278.436705 33.221987 
" clip-path="url(#peed1cb055b)" style="fill: none; stroke: #d62728; stroke-width: 1.5; stroke-linecap: square"/>
    <defs>
     <path id="m4e94b50ed7" d="M 0 3 
C 0.795609 3 1.55874 2.683901 2.12132 2.12132 
C 2.683901 1.55874 3 0.795609 3 0 
C 3 -0.795609 2.683901 -1.55874 2.12132 -2.12132 
C 1.55874 -2.683901 0.795609 -3 0 -3 
C -0.795609 -3 -1.55874 -2.683901 -2.12132 -2.12132 
C -2.683901 -1.55874 -3 -0.795609 -3 0 
C -3 0.795609 -2.683901 1.55874 -2.12132 2.12132 
C -1.55874 2.683901 -0.795609 3 0 3 
z
" style="stroke: #d62728"/>
    </defs>
    <g clip-path="url(#peed1cb055b)">
     <use xlink:href="#m4e94b50ed7" x="56.645795" y="69.029031" style="fill: #d62728; stroke: #d62728"/>
     <use xlink:href="#m4e94b50ed7" x="85.661374" y="69.029031" style="fill: #d62728; stroke: #d62728"/>
     <use xlink:href="#m4e94b50ed7" x="114.676952" y="69.029031" style="fill: #d62728; stroke: #d62728"/>
     <use xlink:href="#m4e94b50ed7" x="153.033461" y="61.405247" style="fill: #d62728; stroke: #d62728"/>
     <use xlink:href="#m4e94b50ed7" x="182.049039" y="54.937565" style="fill: #d62728; stroke: #d62728"/>
     <use xlink:href="#m4e94b50ed7" x="211.064618" y="48.427779" style="fill: #d62728; stroke: #d62728"/>
     <use xlink:href="#m4e94b50ed7" x="228.037643" y="44.580586" style="fill: #d62728; stroke: #d62728"/>
     <use xlink:href="#m4e94b50ed7" x="249.421126" y="39.774451" style="fill: #d62728; stroke: #d62728"/>
     <use xlink:href="#m4e94b50ed7" x="278.436705" y="33.221987" style="fill: #d62728; stroke: #d62728"/>
    </g>
   </g>
   <g id="line2d_51">
    <path d="M 56.645795 87.205243 
L 85.661374 87.205243 
L 114.676952 82.039665 
L 153.033461 73.47639 
L 182.049039 66.924677 
L 211.064618 60.422288 
L 228.037643 56.606093 
L 249.421126 51.770448 
L 278.436705 45.21806 
" clip-path="url(#peed1cb055b)" style="fill: none; stroke: #9467bd; stroke-width: 1.5; stroke-linecap: square"/>
    <defs>
     <path id="m4007dcab77" d="M 0 3 
C 0.795609 3 1.55874 2.683901 2.12132 2.12132 
C 2.683901 1.55874 3 0.795609 3 0 
C 3 -0.795609 2.683901 -1.55874 2.12132 -2.12132 
C 1.55874 -2.683901 0.795609 -3 0 -3 
C -0.795609 -3 -1.55874 -2.683901 -2.12132 -2.12132 
C -2.683901 -1.55874 -3 -0.795609 -3 0 
C -3 0.795609 -2.683901 1.55874 -2.12132 2.12132 
C -1.55874 2.683901 -0.795609 3 0 3 
z
" style="stroke: #9467bd"/>
    </defs>
    <g clip-path="url(#peed1cb055b)">
     <use xlink:href="#m4007dcab77" x="56.645795" y="87.205243" style="fill: #9467bd; stroke: #9467bd"/>
     <use xlink:href="#m4007dcab77" x="85.661374" y="87.205243" style="fill: #9467bd; stroke: #9467bd"/>
     <use xlink:href="#m4007dcab77" x="114.676952" y="82.039665" style="fill: #9467bd; stroke: #9467bd"/>
     <use xlink:href="#m4007dcab77" x="153.033461" y="73.47639" style="fill: #9467bd; stroke: #9467bd"/>
     <use xlink:href="#m4007dcab77" x="182.049039" y="66.924677" style="fill: #9467bd; stroke: #9467bd"/>
     <use xlink:href="#m4007dcab77" x="211.064618" y="60.422288" style="fill: #9467bd; stroke: #9467bd"/>
     <use xlink:href="#m4007dcab77" x="228.037643" y="56.606093" style="fill: #9467bd; stroke: #9467bd"/>
     <use xlink:href="#m4007dcab77" x="249.421126" y="51.770448" style="fill: #9467bd; stroke: #9467bd"/>
     <use xlink:href="#m4007dcab77" x="278.436705" y="45.21806" style="fill: #9467bd; stroke: #9467bd"/>
    </g>
   </g>
   <g id="line2d_52">
    <path d="M 56.645795 56.310001 
L 85.661374 49.138213 
L 114.676952 42.585749 
L 153.033461 33.923862 
L 182.049039 27.371398 
L 211.064618 20.818933 
L 228.037643 16.985987 
L 249.421126 12.157047 
L 278.436705 5.604582 
" clip-path="url(#peed1cb055b)" style="fill: none; stroke: #8c564b; stroke-width: 1.5; stroke-linecap: square"/>
    <defs>
     <path id="m5b325d74e0" d="M 0 3 
C 0.795609 3 1.55874 2.683901 2.12132 2.12132 
C 2.683901 1.55874 3 0.795609 3 0 
C 3 -0.795609 2.683901 -1.55874 2.12132 -2.12132 
C 1.55874 -2.683901 0.795609 -3 0 -3 
C -0.795609 -3 -1.55874 -2.683901 -2.12132 -2.12132 
C -2.683901 -1.55874 -3 -0.795609 -3 0 
C -3 0.795609 -2.683901 1.55874 -2.12132 2.12132 
C -1.55874 2.683901 -0.795609 3 0 3 
z
" style="stroke: #8c564b"/>
    </defs>
    <g clip-path="url(#peed1cb055b)">
     <use xlink:href="#m5b325d74e0" x="56.645795" y="56.310001" style="fill: #8c564b; stroke: #8c564b"/>
     <use xlink:href="#m5b325d74e0" x="85.661374" y="49.138213" style="fill: #8c564b; stroke: #8c564b"/>
     <use xlink:href="#m5b325d74e0" x="114.676952" y="42.585749" style="fill: #8c564b; stroke: #8c564b"/>
     <use xlink:href="#m5b325d74e0" x="153.033461" y="33.923862" style="fill: #8c564b; stroke: #8c564b"/>
     <use xlink:href="#m5b325d74e0" x="182.049039" y="27.371398" style="fill: #8c564b; stroke: #8c564b"/>
     <use xlink:href="#m5b325d74e0" x="211.064618" y="20.818933" style="fill: #8c564b; stroke: #8c564b"/>
     <use xlink:href="#m5b325d74e0" x="228.037643" y="16.985987" style="fill: #8c564b; stroke: #8c564b"/>
     <use xlink:href="#m5b325d74e0" x="249.421126" y="12.157047" style="fill: #8c564b; stroke: #8c564b"/>
     <use xlink:href="#m5b325d74e0" x="278.436705" y="5.604582" style="fill: #8c564b; stroke: #8c564b"/>
    </g>
   </g>
   <g id="line2d_53">
    <path d="M 56.645795 64.746262 
L 85.661374 64.746262 
L 114.676952 63.511738 
L 153.033461 54.966137 
L 182.049039 48.452755 
L 211.064618 41.900291 
L 228.037643 38.080408 
L 249.421126 33.254103 
L 278.436705 26.701628 
" clip-path="url(#peed1cb055b)" style="fill: none; stroke: #e377c2; stroke-width: 1.5; stroke-linecap: square"/>
    <defs>
     <path id="m9afa4c520e" d="M 0 3 
C 0.795609 3 1.55874 2.683901 2.12132 2.12132 
C 2.683901 1.55874 3 0.795609 3 0 
C 3 -0.795609 2.683901 -1.55874 2.12132 -2.12132 
C 1.55874 -2.683901 0.795609 -3 0 -3 
C -0.795609 -3 -1.55874 -2.683901 -2.12132 -2.12132 
C -2.683901 -1.55874 -3 -0.795609 -3 0 
C -3 0.795609 -2.683901 1.55874 -2.12132 2.12132 
C -1.55874 2.683901 -0.795609 3 0 3 
z
" style="stroke: #e377c2"/>
    </defs>
    <g clip-path="url(#peed1cb055b)">
     <use xlink:href="#m9afa4c520e" x="56.645795" y="64.746262" style="fill: #e377c2; stroke: #e377c2"/>
     <use xlink:href="#m9afa4c520e" x="85.661374" y="64.746262" style="fill: #e377c2; stroke: #e377c2"/>
     <use xlink:href="#m9afa4c520e" x="114.676952" y="63.511738" style="fill: #e377c2; stroke: #e377c2"/>
     <use xlink:href="#m9afa4c520e" x="153.033461" y="54.966137" style="fill: #e377c2; stroke: #e377c2"/>
     <use xlink:href="#m9afa4c520e" x="182.049039" y="48.452755" style="fill: #e377c2; stroke: #e377c2"/>
     <use xlink:href="#m9afa4c520e" x="211.064618" y="41.900291" style="fill: #e377c2; stroke: #e377c2"/>
     <use xlink:href="#m9afa4c520e" x="228.037643" y="38.080408" style="fill: #e377c2; stroke: #e377c2"/>
     <use xlink:href="#m9afa4c520e" x="249.421126" y="33.254103" style="fill: #e377c2; stroke: #e377c2"/>
     <use xlink:href="#m9afa4c520e" x="278.436705" y="26.701628" style="fill: #e377c2; stroke: #e377c2"/>
    </g>
   </g>
   <g id="patch_3">
    <path d="M 45.55625 112.633296 
L 45.55625 0.285126 
" style="fill: none; stroke: #000000; stroke-width: 0.8; stroke-linejoin: miter; stroke-linecap: square"/>
   </g>
   <g id="patch_4">
    <path d="M 289.52625 112.633296 
L 289.52625 0.285126 
" style="fill: none; stroke: #000000; stroke-width: 0.8; stroke-linejoin: miter; stroke-linecap: square"/>
   </g>
   <g id="patch_5">
    <path d="M 45.55625 112.633296 
L 289.52625 112.633296 
" style="fill: none; stroke: #000000; stroke-width: 0.8; stroke-linejoin: miter; stroke-linecap: square"/>
   </g>
   <g id="patch_6">
    <path d="M 45.55625 0.285126 
L 289.52625 0.285126 
" style="fill: none; stroke: #000000; stroke-width: 0.8; stroke-linejoin: miter; stroke-linecap: square"/>
   </g>
   <g id="legend_1">
    <g id="patch_7">
     <path d="M 295.82625 104.045305 
L 393.653437 104.045305 
Q 395.453438 104.045305 395.453438 102.245305 
L 395.453438 10.673118 
Q 395.453438 8.873118 393.653437 8.873118 
L 295.82625 8.873118 
Q 294.02625 8.873118 294.02625 10.673118 
L 294.02625 102.245305 
Q 294.02625 104.045305 295.82625 104.045305 
z
" style="fill: #ffffff; opacity: 0.8; stroke: #cccccc; stroke-linejoin: miter"/>
    </g>
    <g id="line2d_54">
     <path d="M 297.62625 16.161711 
L 306.62625 16.161711 
L 315.62625 16.161711 
" style="fill: none; stroke: #1f77b4; stroke-width: 1.5; stroke-linecap: square"/>
     <g>
      <use xlink:href="#m1dab990004" x="306.62625" y="16.161711" style="fill: #1f77b4; stroke: #1f77b4"/>
     </g>
    </g>
    <g id="text_18">
     <!-- Kokoro -->
     <g transform="translate(322.82625 19.311711) scale(0.09 -0.09)">
      <defs>
       <path id="DejaVuSans-4b" d="M 628 4666 
L 1259 4666 
L 1259 2694 
L 3353 4666 
L 4166 4666 
L 1850 2491 
L 4331 0 
L 3500 0 
L 1259 2247 
L 1259 0 
L 628 0 
L 628 4666 
z
" transform="scale(0.015625)"/>
      </defs>
      <use xlink:href="#DejaVuSans-4b"/>
      <use xlink:href="#DejaVuSans-6f" transform="translate(60.576172 0)"/>
      <use xlink:href="#DejaVuSans-6b" transform="translate(121.757812 0)"/>
      <use xlink:href="#DejaVuSans-6f" transform="translate(176.042969 0)"/>
      <use xlink:href="#DejaVuSans-72" transform="translate(237.224609 0)"/>
      <use xlink:href="#DejaVuSans-6f" transform="translate(276.087891 0)"/>
     </g>
    </g>
    <g id="line2d_55">
     <path d="M 297.62625 29.372024 
L 306.62625 29.372024 
L 315.62625 29.372024 
" style="fill: none; stroke: #ff7f0e; stroke-width: 1.5; stroke-linecap: square"/>
     <g>
      <use xlink:href="#m17a902b544" x="306.62625" y="29.372024" style="fill: #ff7f0e; stroke: #ff7f0e"/>
     </g>
    </g>
    <g id="text_19">
     <!-- Gemma -->
     <g transform="translate(322.82625 32.522024) scale(0.09 -0.09)">
      <defs>
       <path id="DejaVuSans-47" d="M 3809 666 
L 3809 1919 
L 2778 1919 
L 2778 2438 
L 4434 2438 
L 4434 434 
Q 4069 175 3628 42 
Q 3188 -91 2688 -91 
Q 1594 -91 976 548 
Q 359 1188 359 2328 
Q 359 3472 976 4111 
Q 1594 4750 2688 4750 
Q 3144 4750 3555 4637 
Q 3966 4525 4313 4306 
L 4313 3634 
Q 3963 3931 3569 4081 
Q 3175 4231 2741 4231 
Q 1884 4231 1454 3753 
Q 1025 3275 1025 2328 
Q 1025 1384 1454 906 
Q 1884 428 2741 428 
Q 3075 428 3337 486 
Q 3600 544 3809 666 
z
" transform="scale(0.015625)"/>
       <path id="DejaVuSans-61" d="M 2194 1759 
Q 1497 1759 1228 1600 
Q 959 1441 959 1056 
Q 959 750 1161 570 
Q 1363 391 1709 391 
Q 2188 391 2477 730 
Q 2766 1069 2766 1631 
L 2766 1759 
L 2194 1759 
z
M 3341 1997 
L 3341 0 
L 2766 0 
L 2766 531 
Q 2569 213 2275 61 
Q 1981 -91 1556 -91 
Q 1019 -91 701 211 
Q 384 513 384 1019 
Q 384 1609 779 1909 
Q 1175 2209 1959 2209 
L 2766 2209 
L 2766 2266 
Q 2766 2663 2505 2880 
Q 2244 3097 1772 3097 
Q 1472 3097 1187 3025 
Q 903 2953 641 2809 
L 641 3341 
Q 956 3463 1253 3523 
Q 1550 3584 1831 3584 
Q 2591 3584 2966 3190 
Q 3341 2797 3341 1997 
z
" transform="scale(0.015625)"/>
      </defs>
      <use xlink:href="#DejaVuSans-47"/>
      <use xlink:href="#DejaVuSans-65" transform="translate(77.490234 0)"/>
      <use xlink:href="#DejaVuSans-6d" transform="translate(139.013672 0)"/>
      <use xlink:href="#DejaVuSans-6d" transform="translate(236.425781 0)"/>
      <use xlink:href="#DejaVuSans-61" transform="translate(333.837891 0)"/>
     </g>
    </g>
    <g id="line2d_56">
     <path d="M 297.62625 42.582336 
L 306.62625 42.582336 
L 315.62625 42.582336 
" style="fill: none; stroke: #2ca02c; stroke-width: 1.5; stroke-linecap: square"/>
     <g>
      <use xlink:href="#m203f651d03" x="306.62625" y="42.582336" style="fill: #2ca02c; stroke: #2ca02c"/>
     </g>
    </g>
    <g id="text_20">
     <!-- Flux -->
     <g transform="translate(322.82625 45.732336) scale(0.09 -0.09)">
      <defs>
       <path id="DejaVuSans-46" d="M 628 4666 
L 3309 4666 
L 3309 4134 
L 1259 4134 
L 1259 2759 
L 3109 2759 
L 3109 2228 
L 1259 2228 
L 1259 0 
L 628 0 
L 628 4666 
z
" transform="scale(0.015625)"/>
       <path id="DejaVuSans-78" d="M 3513 3500 
L 2247 1797 
L 3578 0 
L 2900 0 
L 1881 1375 
L 863 0 
L 184 0 
L 1544 1831 
L 300 3500 
L 978 3500 
L 1906 2253 
L 2834 3500 
L 3513 3500 
z
" transform="scale(0.015625)"/>
      </defs>
      <use xlink:href="#DejaVuSans-46"/>
      <use xlink:href="#DejaVuSans-6c" transform="translate(57.519531 0)"/>
      <use xlink:href="#DejaVuSans-75" transform="translate(85.302734 0)"/>
      <use xlink:href="#DejaVuSans-78" transform="translate(148.681641 0)"/>
     </g>
    </g>
    <g id="line2d_57">
     <path d="M 297.62625 55.792649 
L 306.62625 55.792649 
L 315.62625 55.792649 
" style="fill: none; stroke: #d62728; stroke-width: 1.5; stroke-linecap: square"/>
     <g>
      <use xlink:href="#m4e94b50ed7" x="306.62625" y="55.792649" style="fill: #d62728; stroke: #d62728"/>
     </g>
    </g>
    <g id="text_21">
     <!-- FramePack -->
     <g transform="translate(322.82625 58.942649) scale(0.09 -0.09)">
      <defs>
       <path id="DejaVuSans-63" d="M 3122 3366 
L 3122 2828 
Q 2878 2963 2633 3030 
Q 2388 3097 2138 3097 
Q 1578 3097 1268 2742 
Q 959 2388 959 1747 
Q 959 1106 1268 751 
Q 1578 397 2138 397 
Q 2388 397 2633 464 
Q 2878 531 3122 666 
L 3122 134 
Q 2881 22 2623 -34 
Q 2366 -91 2075 -91 
Q 1284 -91 818 406 
Q 353 903 353 1747 
Q 353 2603 823 3093 
Q 1294 3584 2113 3584 
Q 2378 3584 2631 3529 
Q 2884 3475 3122 3366 
z
" transform="scale(0.015625)"/>
      </defs>
      <use xlink:href="#DejaVuSans-46"/>
      <use xlink:href="#DejaVuSans-72" transform="translate(50.269531 0)"/>
      <use xlink:href="#DejaVuSans-61" transform="translate(91.382812 0)"/>
      <use xlink:href="#DejaVuSans-6d" transform="translate(152.662109 0)"/>
      <use xlink:href="#DejaVuSans-65" transform="translate(250.074219 0)"/>
      <use xlink:href="#DejaVuSans-50" transform="translate(311.597656 0)"/>
      <use xlink:href="#DejaVuSans-61" transform="translate(367.400391 0)"/>
      <use xlink:href="#DejaVuSans-63" transform="translate(428.679688 0)"/>
      <use xlink:href="#DejaVuSans-6b" transform="translate(483.660156 0)"/>
     </g>
    </g>
    <g id="line2d_58">
     <path d="M 297.62625 69.002961 
L 306.62625 69.002961 
L 315.62625 69.002961 
" style="fill: none; stroke: #9467bd; stroke-width: 1.5; stroke-linecap: square"/>
     <g>
      <use xlink:href="#m4007dcab77" x="306.62625" y="69.002961" style="fill: #9467bd; stroke: #9467bd"/>
     </g>
    </g>
    <g id="text_22">
     <!-- FramePack VAE -->
     <g transform="translate(322.82625 72.152961) scale(0.09 -0.09)">
      <defs>
       <path id="DejaVuSans-56" d="M 1831 0 
L 50 4666 
L 709 4666 
L 2188 738 
L 3669 4666 
L 4325 4666 
L 2547 0 
L 1831 0 
z
" transform="scale(0.015625)"/>
       <path id="DejaVuSans-41" d="M 2188 4044 
L 1331 1722 
L 3047 1722 
L 2188 4044 
z
M 1831 4666 
L 2547 4666 
L 4325 0 
L 3669 0 
L 3244 1197 
L 1141 1197 
L 716 0 
L 50 0 
L 1831 4666 
z
" transform="scale(0.015625)"/>
       <path id="DejaVuSans-45" d="M 628 4666 
L 3578 4666 
L 3578 4134 
L 1259 4134 
L 1259 2753 
L 3481 2753 
L 3481 2222 
L 1259 2222 
L 1259 531 
L 3634 531 
L 3634 0 
L 628 0 
L 628 4666 
z
" transform="scale(0.015625)"/>
      </defs>
      <use xlink:href="#DejaVuSans-46"/>
      <use xlink:href="#DejaVuSans-72" transform="translate(50.269531 0)"/>
      <use xlink:href="#DejaVuSans-61" transform="translate(91.382812 0)"/>
      <use xlink:href="#DejaVuSans-6d" transform="translate(152.662109 0)"/>
      <use xlink:href="#DejaVuSans-65" transform="translate(250.074219 0)"/>
      <use xlink:href="#DejaVuSans-50" transform="translate(311.597656 0)"/>
      <use xlink:href="#DejaVuSans-61" transform="translate(367.400391 0)"/>
      <use xlink:href="#DejaVuSans-63" transform="translate(428.679688 0)"/>
      <use xlink:href="#DejaVuSans-6b" transform="translate(483.660156 0)"/>
      <use xlink:href="#DejaVuSans-20" transform="translate(541.570312 0)"/>
      <use xlink:href="#DejaVuSans-56" transform="translate(573.357422 0)"/>
      <use xlink:href="#DejaVuSans-41" transform="translate(635.390625 0)"/>
      <use xlink:href="#DejaVuSans-45" transform="translate(703.798828 0)"/>
     </g>
    </g>
    <g id="line2d_59">
     <path d="M 297.62625 82.213274 
L 306.62625 82.213274 
L 315.62625 82.213274 
" style="fill: none; stroke: #8c564b; stroke-width: 1.5; stroke-linecap: square"/>
     <g>
      <use xlink:href="#m5b325d74e0" x="306.62625" y="82.213274" style="fill: #8c564b; stroke: #8c564b"/>
     </g>
    </g>
    <g id="text_23">
     <!-- Fantasy Talking -->
     <g transform="translate(322.82625 85.363274) scale(0.09 -0.09)">
      <defs>
       <path id="DejaVuSans-79" d="M 2059 -325 
Q 1816 -950 1584 -1140 
Q 1353 -1331 966 -1331 
L 506 -1331 
L 506 -850 
L 844 -850 
Q 1081 -850 1212 -737 
Q 1344 -625 1503 -206 
L 1606 56 
L 191 3500 
L 800 3500 
L 1894 763 
L 2988 3500 
L 3597 3500 
L 2059 -325 
z
" transform="scale(0.015625)"/>
       <path id="DejaVuSans-54" d="M -19 4666 
L 3928 4666 
L 3928 4134 
L 2272 4134 
L 2272 0 
L 1638 0 
L 1638 4134 
L -19 4134 
L -19 4666 
z
" transform="scale(0.015625)"/>
      </defs>
      <use xlink:href="#DejaVuSans-46"/>
      <use xlink:href="#DejaVuSans-61" transform="translate(48.394531 0)"/>
      <use xlink:href="#DejaVuSans-6e" transform="translate(109.673828 0)"/>
      <use xlink:href="#DejaVuSans-74" transform="translate(173.052734 0)"/>
      <use xlink:href="#DejaVuSans-61" transform="translate(212.261719 0)"/>
      <use xlink:href="#DejaVuSans-73" transform="translate(273.541016 0)"/>
      <use xlink:href="#DejaVuSans-79" transform="translate(325.640625 0)"/>
      <use xlink:href="#DejaVuSans-20" transform="translate(384.820312 0)"/>
      <use xlink:href="#DejaVuSans-54" transform="translate(416.607422 0)"/>
      <use xlink:href="#DejaVuSans-61" transform="translate(461.191406 0)"/>
      <use xlink:href="#DejaVuSans-6c" transform="translate(522.470703 0)"/>
      <use xlink:href="#DejaVuSans-6b" transform="translate(550.253906 0)"/>
      <use xlink:href="#DejaVuSans-69" transform="translate(608.164062 0)"/>
      <use xlink:href="#DejaVuSans-6e" transform="translate(635.947266 0)"/>
      <use xlink:href="#DejaVuSans-67" transform="translate(699.326172 0)"/>
     </g>
    </g>
    <g id="line2d_60">
     <path d="M 297.62625 95.423586 
L 306.62625 95.423586 
L 315.62625 95.423586 
" style="fill: none; stroke: #e377c2; stroke-width: 1.5; stroke-linecap: square"/>
     <g>
      <use xlink:href="#m9afa4c520e" x="306.62625" y="95.423586" style="fill: #e377c2; stroke: #e377c2"/>
     </g>
    </g>
    <g id="text_24">
     <!-- Real-ESRGAN -->
     <g transform="translate(322.82625 98.573586) scale(0.09 -0.09)">
      <defs>
       <path id="DejaVuSans-52" d="M 2841 2188 
Q 3044 2119 3236 1894 
Q 3428 1669 3622 1275 
L 4263 0 
L 3584 0 
L 2988 1197 
Q 2756 1666 2539 1819 
Q 2322 1972 1947 1972 
L 1259 1972 
L 1259 0 
L 628 0 
L 628 4666 
L 2053 4666 
Q 2853 4666 3247 4331 
Q 3641 3997 3641 3322 
Q 3641 2881 3436 2590 
Q 3231 2300 2841 2188 
z
M 1259 4147 
L 1259 2491 
L 2053 2491 
Q 2509 2491 2742 2702 
Q 2975 2913 2975 3322 
Q 2975 3731 2742 3939 
Q 2509 4147 2053 4147 
L 1259 4147 
z
" transform="scale(0.015625)"/>
       <path id="DejaVuSans-2d" d="M 313 2009 
L 1997 2009 
L 1997 1497 
L 313 1497 
L 313 2009 
z
" transform="scale(0.015625)"/>
       <path id="DejaVuSans-4e" d="M 628 4666 
L 1478 4666 
L 3547 763 
L 3547 4666 
L 4159 4666 
L 4159 0 
L 3309 0 
L 1241 3903 
L 1241 0 
L 628 0 
L 628 4666 
z
" transform="scale(0.015625)"/>
      </defs>
      <use xlink:href="#DejaVuSans-52"/>
      <use xlink:href="#DejaVuSans-65" transform="translate(64.982422 0)"/>
      <use xlink:href="#DejaVuSans-61" transform="translate(126.505859 0)"/>
      <use xlink:href="#DejaVuSans-6c" transform="translate(187.785156 0)"/>
      <use xlink:href="#DejaVuSans-2d" transform="translate(215.568359 0)"/>
      <use xlink:href="#DejaVuSans-45" transform="translate(251.652344 0)"/>
      <use xlink:href="#DejaVuSans-53" transform="translate(314.835938 0)"/>
      <use xlink:href="#DejaVuSans-52" transform="translate(378.3125 0)"/>
      <use xlink:href="#DejaVuSans-47" transform="translate(447.794922 0)"/>
      <use xlink:href="#DejaVuSans-41" transform="translate(525.285156 0)"/>
      <use xlink:href="#DejaVuSans-4e" transform="translate(593.693359 0)"/>
     </g>
    </g>
   </g>
  </g>
 </g>
 <defs>
  <clipPath id="peed1cb055b">
   <rect x="45.55625" y="0.285126" width="243.97" height="112.34817"/>
  </clipPath>
 </defs>
</svg>
